%TF.GenerationSoftware,KiCad,Pcbnew,9.0.7*%
%TF.CreationDate,2026-02-26T02:16:37-06:00*%
%TF.ProjectId,Main_Board_PCB,4d61696e-5f42-46f6-9172-645f5043422e,rev?*%
%TF.SameCoordinates,Original*%
%TF.FileFunction,Soldermask,Bot*%
%TF.FilePolarity,Negative*%
%FSLAX46Y46*%
G04 Gerber Fmt 4.6, Leading zero omitted, Abs format (unit mm)*
G04 Created by KiCad (PCBNEW 9.0.7) date 2026-02-26 02:16:37*
%MOMM*%
%LPD*%
G01*
G04 APERTURE LIST*
G04 Aperture macros list*
%AMRoundRect*
0 Rectangle with rounded corners*
0 $1 Rounding radius*
0 $2 $3 $4 $5 $6 $7 $8 $9 X,Y pos of 4 corners*
0 Add a 4 corners polygon primitive as box body*
4,1,4,$2,$3,$4,$5,$6,$7,$8,$9,$2,$3,0*
0 Add four circle primitives for the rounded corners*
1,1,$1+$1,$2,$3*
1,1,$1+$1,$4,$5*
1,1,$1+$1,$6,$7*
1,1,$1+$1,$8,$9*
0 Add four rect primitives between the rounded corners*
20,1,$1+$1,$2,$3,$4,$5,0*
20,1,$1+$1,$4,$5,$6,$7,0*
20,1,$1+$1,$6,$7,$8,$9,0*
20,1,$1+$1,$8,$9,$2,$3,0*%
G04 Aperture macros list end*
%ADD10C,5.600000*%
%ADD11R,1.700000X1.700000*%
%ADD12C,1.700000*%
%ADD13C,0.650000*%
%ADD14O,2.100000X1.000000*%
%ADD15O,1.800000X1.000000*%
%ADD16C,1.854000*%
%ADD17RoundRect,0.102000X-0.825000X0.825000X-0.825000X-0.825000X0.825000X-0.825000X0.825000X0.825000X0*%
%ADD18RoundRect,0.102000X0.825000X0.825000X-0.825000X0.825000X-0.825000X-0.825000X0.825000X-0.825000X0*%
G04 APERTURE END LIST*
D10*
%TO.C,H4*%
X187750000Y-142250000D03*
%TD*%
D11*
%TO.C,J16*%
X116500000Y-96710000D03*
D12*
X116500000Y-99250000D03*
X116500000Y-101790000D03*
%TD*%
D13*
%TO.C,J4*%
X98355000Y-70110000D03*
X98355000Y-75890000D03*
D14*
X98875000Y-68680000D03*
D15*
X94675000Y-68680000D03*
D14*
X98875000Y-77320000D03*
D15*
X94675000Y-77320000D03*
%TD*%
D16*
%TO.C,J15*%
X148468840Y-126850000D03*
X145928840Y-126850000D03*
X148468840Y-124310000D03*
X145928840Y-124310000D03*
X148468840Y-121770000D03*
X145928840Y-121770000D03*
X148468840Y-119230000D03*
X145928840Y-119230000D03*
X148468840Y-116690000D03*
D17*
X145928840Y-116690000D03*
%TD*%
D16*
%TO.C,J11*%
X176420000Y-100770000D03*
X176420000Y-98230000D03*
X178960000Y-100770000D03*
X178960000Y-98230000D03*
X181500000Y-100770000D03*
X181500000Y-98230000D03*
X184040000Y-100770000D03*
X184040000Y-98230000D03*
X186580000Y-100770000D03*
D18*
X186580000Y-98230000D03*
%TD*%
D16*
%TO.C,J8*%
X176420000Y-64770000D03*
X176420000Y-62230000D03*
X178960000Y-64770000D03*
X178960000Y-62230000D03*
X181500000Y-64770000D03*
X181500000Y-62230000D03*
X184040000Y-64770000D03*
X184040000Y-62230000D03*
X186580000Y-64770000D03*
D18*
X186580000Y-62230000D03*
%TD*%
D10*
%TO.C,H2*%
X95750000Y-56500000D03*
%TD*%
D18*
%TO.C,J13*%
X186580000Y-122230000D03*
D16*
X186580000Y-124770000D03*
X184040000Y-122230000D03*
X184040000Y-124770000D03*
X181500000Y-122230000D03*
X181500000Y-124770000D03*
X178960000Y-122230000D03*
X178960000Y-124770000D03*
X176420000Y-122230000D03*
X176420000Y-124770000D03*
%TD*%
D18*
%TO.C,J12*%
X186580000Y-110230000D03*
D16*
X186580000Y-112770000D03*
X184040000Y-110230000D03*
X184040000Y-112770000D03*
X181500000Y-110230000D03*
X181500000Y-112770000D03*
X178960000Y-110230000D03*
X178960000Y-112770000D03*
X176420000Y-110230000D03*
X176420000Y-112770000D03*
%TD*%
D11*
%TO.C,J1*%
X124500000Y-109330000D03*
D12*
X124500000Y-106790000D03*
X124500000Y-104250000D03*
X124500000Y-101710000D03*
X124500000Y-99170000D03*
X124500000Y-96630000D03*
X124500000Y-94090000D03*
X124500000Y-91550000D03*
X124500000Y-89010000D03*
X124500000Y-86470000D03*
X124500000Y-83930000D03*
X124500000Y-81390000D03*
X124500000Y-78850000D03*
X124500000Y-76310000D03*
%TD*%
D10*
%TO.C,H3*%
X95750000Y-142250000D03*
%TD*%
D11*
%TO.C,J3*%
X120500000Y-86525000D03*
D12*
X120500000Y-83985000D03*
%TD*%
%TO.C,SW2*%
X102250000Y-59750000D03*
X108750000Y-59750000D03*
X102250000Y-64250000D03*
X108750000Y-64250000D03*
%TD*%
%TO.C,SW1*%
X115000000Y-59750000D03*
X121500000Y-59750000D03*
X115000000Y-64250000D03*
X121500000Y-64250000D03*
%TD*%
D10*
%TO.C,H1*%
X187750000Y-56500000D03*
%TD*%
D18*
%TO.C,J14*%
X186580000Y-134230000D03*
D16*
X186580000Y-136770000D03*
X184040000Y-134230000D03*
X184040000Y-136770000D03*
X181500000Y-134230000D03*
X181500000Y-136770000D03*
X178960000Y-134230000D03*
X178960000Y-136770000D03*
X176420000Y-134230000D03*
X176420000Y-136770000D03*
%TD*%
D11*
%TO.C,J5*%
X94475000Y-112000000D03*
D12*
X97015000Y-112000000D03*
%TD*%
D11*
%TO.C,J7*%
X98000000Y-85380000D03*
D12*
X98000000Y-87920000D03*
X98000000Y-90460000D03*
X98000000Y-93000000D03*
X98000000Y-95540000D03*
%TD*%
D11*
%TO.C,J6*%
X118500000Y-115475000D03*
D12*
X118500000Y-118015000D03*
%TD*%
D16*
%TO.C,J10*%
X176420000Y-88770000D03*
X176420000Y-86230000D03*
X178960000Y-88770000D03*
X178960000Y-86230000D03*
X181500000Y-88770000D03*
X181500000Y-86230000D03*
X184040000Y-88770000D03*
X184040000Y-86230000D03*
X186580000Y-88770000D03*
D18*
X186580000Y-86230000D03*
%TD*%
D11*
%TO.C,J2*%
X158540000Y-143000000D03*
D12*
X156000000Y-143000000D03*
%TD*%
D18*
%TO.C,J9*%
X186580000Y-74230000D03*
D16*
X186580000Y-76770000D03*
X184040000Y-74230000D03*
X184040000Y-76770000D03*
X181500000Y-74230000D03*
X181500000Y-76770000D03*
X178960000Y-74230000D03*
X178960000Y-76770000D03*
X176420000Y-74230000D03*
X176420000Y-76770000D03*
%TD*%
M02*
