M48
; DRILL file {KiCad 9.0.7} date 2026-02-26T02:16:34-0600
; FORMAT={-:-/ absolute / metric / decimal}
; #@! TF.CreationDate,2026-02-26T02:16:34-06:00
; #@! TF.GenerationSoftware,Kicad,Pcbnew,9.0.7
; #@! TF.FileFunction,Plated,1,2,PTH
FMAT,2
METRIC
; #@! TA.AperFunction,Plated,PTH,ViaDrill
T1C0.300
; #@! TA.AperFunction,Plated,PTH,ComponentDrill
T2C0.600
; #@! TA.AperFunction,Plated,PTH,ComponentDrill
T3C1.000
; #@! TA.AperFunction,Plated,PTH,ComponentDrill
T4C1.100
; #@! TA.AperFunction,Plated,PTH,ComponentDrill
T5C3.200
%
G90
G05
T1
X93.0Y-87.75
X93.0Y-89.25
X93.0Y-91.0
X93.0Y-92.75
X93.0Y-94.5
X93.0Y-96.25
X93.0Y-98.0
X93.0Y-99.75
X93.0Y-101.5
X93.0Y-103.25
X93.0Y-105.0
X93.0Y-106.75
X93.0Y-108.5
X93.0Y-116.0
X93.0Y-117.5
X93.0Y-119.25
X93.0Y-121.0
X93.0Y-122.75
X93.0Y-124.5
X93.0Y-126.25
X93.0Y-128.0
X93.0Y-129.75
X93.0Y-131.5
X93.0Y-133.25
X93.0Y-135.0
X93.0Y-136.75
X97.5Y-63.75
X99.0Y-106.0
X99.0Y-107.5
X99.75Y-126.5
X100.25Y-54.25
X100.75Y-106.0
X100.75Y-107.5
X100.75Y-109.25
X100.75Y-111.25
X101.0Y-127.0
X102.0Y-54.25
X102.0Y-121.25
X102.5Y-106.0
X102.5Y-107.5
X102.5Y-109.25
X102.5Y-111.25
X102.75Y-85.0
X103.25Y-91.0
X103.5Y-119.5
X103.75Y-54.25
X103.75Y-79.5
X104.25Y-106.0
X104.25Y-107.5
X104.25Y-109.25
X104.25Y-111.25
X105.5Y-54.25
X106.0Y-106.0
X106.0Y-107.5
X106.0Y-109.25
X106.0Y-111.25
X106.75Y-86.75
X107.25Y-54.25
X107.5Y-76.0
X107.5Y-128.5
X107.75Y-69.75
X107.75Y-106.0
X107.75Y-107.5
X107.75Y-109.25
X107.75Y-111.25
X109.0Y-54.25
X109.5Y-106.0
X109.5Y-107.5
X109.5Y-109.25
X109.5Y-111.25
X109.75Y-82.0
X110.75Y-54.25
X111.25Y-88.75
X111.25Y-106.0
X111.25Y-107.5
X111.25Y-109.25
X111.25Y-111.25
X112.0Y-65.25
X112.5Y-54.25
X113.0Y-106.0
X113.0Y-107.5
X113.0Y-109.25
X113.0Y-111.25
X114.0Y-68.75
X114.25Y-54.25
X114.5Y-76.0
X114.75Y-106.0
X114.75Y-107.5
X114.75Y-109.25
X114.75Y-111.25
X116.0Y-54.25
X116.5Y-106.0
X116.5Y-107.5
X116.5Y-109.25
X116.5Y-111.25
X116.75Y-89.0
X117.0Y-80.5
X117.0Y-138.25
X117.0Y-140.5
X117.75Y-54.25
X118.25Y-106.0
X118.25Y-107.5
X118.25Y-109.25
X118.25Y-111.25
X118.75Y-138.25
X118.75Y-140.5
X119.5Y-54.25
X119.75Y-106.0
X119.75Y-107.5
X120.0Y-78.0
X120.0Y-94.0
X120.0Y-109.25
X120.0Y-111.25
X120.5Y-72.0
X120.5Y-74.25
X120.5Y-138.25
X120.5Y-140.5
X121.25Y-54.25
X121.5Y-66.5
X121.5Y-68.0
X121.5Y-109.25
X122.0Y-75.5
X122.25Y-138.25
X122.25Y-140.5
X122.5Y-66.5
X122.5Y-68.0
X122.75Y-114.0
X123.0Y-54.25
X124.0Y-138.25
X124.0Y-140.5
X124.5Y-54.25
X124.5Y-114.0
X125.75Y-70.25
X125.75Y-138.25
X125.75Y-140.5
X126.25Y-114.0
X126.75Y-63.5
X127.0Y-60.75
X127.5Y-138.25
X127.5Y-140.5
X128.0Y-114.0
X129.0Y-63.5
X129.25Y-138.25
X129.25Y-140.5
X129.75Y-107.0
X129.75Y-108.5
X129.75Y-110.0
X129.75Y-111.5
X129.75Y-114.0
X130.877Y-75.127
X131.0Y-138.25
X131.0Y-140.5
X131.5Y-107.0
X131.5Y-108.5
X131.5Y-110.0
X131.5Y-111.5
X131.5Y-114.0
X132.0Y-76.0
X132.75Y-66.0
X132.75Y-68.5
X132.75Y-138.25
X132.75Y-140.5
X133.0Y-64.5
X133.25Y-107.0
X133.25Y-108.5
X133.25Y-110.0
X133.25Y-111.5
X133.25Y-114.0
X133.5Y-57.25
X133.5Y-74.5
X133.75Y-54.5
X133.75Y-67.25
X134.5Y-138.25
X134.5Y-140.5
X135.0Y-107.0
X135.0Y-108.5
X135.0Y-110.0
X135.0Y-111.5
X135.0Y-114.0
X135.5Y-54.5
X136.0Y-98.75
X136.25Y-138.25
X136.25Y-140.5
X136.75Y-107.0
X136.75Y-108.5
X136.75Y-110.0
X136.75Y-111.5
X136.75Y-114.0
X137.25Y-54.5
X137.75Y-138.25
X137.75Y-140.5
X138.5Y-107.0
X138.5Y-108.5
X138.5Y-110.0
X138.5Y-111.5
X138.5Y-114.0
X139.0Y-54.5
X139.25Y-69.75
X140.25Y-107.0
X140.25Y-108.5
X140.25Y-110.0
X140.25Y-111.5
X140.25Y-114.0
X140.75Y-54.5
X142.0Y-107.0
X142.0Y-108.5
X142.0Y-110.0
X142.0Y-111.5
X142.0Y-114.0
X142.25Y-90.75
X142.5Y-54.5
X143.5Y-114.0
X143.75Y-107.0
X143.75Y-108.5
X143.75Y-110.0
X143.75Y-111.5
X143.75Y-132.75
X144.25Y-54.5
X144.75Y-62.75
X144.75Y-142.75
X145.25Y-132.75
X145.5Y-107.0
X145.5Y-108.5
X145.5Y-110.0
X145.5Y-111.5
X145.75Y-54.5
X145.75Y-141.75
X146.0Y-139.75
X147.0Y-55.75
X147.0Y-70.75
X147.25Y-58.25
X147.25Y-59.5
X147.25Y-107.0
X147.25Y-108.5
X147.25Y-110.0
X147.25Y-111.5
X148.5Y-139.5
X149.0Y-107.0
X149.0Y-108.5
X149.0Y-110.0
X149.0Y-111.5
X149.0Y-129.5
X149.0Y-131.25
X150.0Y-89.75
X150.0Y-134.5
X150.125Y-57.125
X150.25Y-55.75
X150.25Y-139.5
X150.5Y-61.0
X150.5Y-62.25
X150.5Y-63.5
X150.5Y-107.0
X150.5Y-108.5
X150.5Y-110.0
X150.5Y-111.5
X152.0Y-84.5
X152.25Y-70.0
X152.5Y-66.75
X152.83Y-83.0
X153.5Y-81.5
X154.0Y-56.75
X154.25Y-80.0
X154.25Y-122.25
X154.25Y-131.5
X154.895Y-78.5
X155.5Y-77.0
X155.723Y-137.522
X155.75Y-61.25
X157.25Y-64.25
X157.25Y-68.223
X157.25Y-69.277
X157.25Y-77.75
X157.25Y-79.25
X157.25Y-90.75
X157.25Y-92.75
X157.25Y-101.5
X157.25Y-103.0
X157.25Y-114.0
X157.25Y-115.5
X157.25Y-126.5
X157.25Y-128.0
X157.25Y-136.0
X158.0Y-133.0
X160.5Y-54.25
X160.5Y-61.0
X160.5Y-73.0
X160.5Y-85.0
X160.5Y-97.0
X160.5Y-109.0
X160.5Y-121.0
X160.5Y-133.0
X161.5Y-62.0
X161.5Y-74.0
X161.5Y-86.0
X161.5Y-98.0
X161.5Y-110.0
X161.5Y-122.0
X161.5Y-134.0
X161.75Y-58.5
X162.25Y-54.25
X163.0Y-145.0
X163.5Y-88.75
X163.5Y-100.75
X163.5Y-112.75
X163.5Y-124.75
X163.5Y-136.75
X163.75Y-62.0
X163.75Y-64.75
X163.75Y-66.5
X163.75Y-74.0
X163.75Y-76.75
X163.75Y-78.5
X163.75Y-86.25
X163.75Y-90.5
X163.75Y-98.0
X163.75Y-102.5
X163.75Y-110.0
X163.75Y-114.5
X163.75Y-122.0
X163.75Y-126.5
X163.75Y-134.0
X163.75Y-138.5
X164.0Y-54.25
X164.75Y-145.0
X165.75Y-54.25
X165.75Y-57.25
X165.75Y-69.25
X165.75Y-81.25
X165.75Y-93.25
X165.75Y-105.25
X165.75Y-117.25
X165.75Y-129.25
X166.5Y-145.0
X167.5Y-54.25
X168.25Y-145.0
X168.5Y-78.25
X168.75Y-90.25
X168.75Y-102.5
X168.75Y-126.25
X168.75Y-138.5
X169.0Y-66.25
X169.0Y-114.25
X169.25Y-54.25
X169.25Y-70.0
X169.25Y-82.5
X169.25Y-94.5
X169.25Y-106.25
X169.25Y-118.25
X169.25Y-130.25
X170.0Y-60.0
X170.0Y-145.0
X170.75Y-62.75
X170.75Y-72.0
X170.75Y-74.75
X170.75Y-84.0
X170.75Y-86.75
X170.75Y-96.0
X170.75Y-98.75
X170.75Y-108.0
X170.75Y-110.75
X170.75Y-120.0
X170.75Y-122.75
X170.75Y-132.0
X170.75Y-134.75
X171.0Y-54.25
X171.75Y-145.0
X172.25Y-65.5
X172.25Y-77.5
X172.25Y-89.5
X172.25Y-101.5
X172.25Y-125.5
X172.25Y-137.5
X172.5Y-113.5
X172.75Y-54.25
X172.75Y-70.0
X172.75Y-82.5
X172.75Y-94.5
X172.75Y-106.25
X172.75Y-118.25
X172.75Y-130.25
X173.5Y-145.0
X173.75Y-65.5
X173.75Y-77.5
X173.75Y-89.5
X173.75Y-101.5
X173.75Y-113.5
X173.75Y-125.5
X173.75Y-137.5
X174.5Y-54.25
X174.5Y-70.0
X174.5Y-82.5
X174.5Y-94.5
X174.5Y-106.25
X174.5Y-118.25
X174.5Y-130.25
X175.25Y-145.0
X176.25Y-54.25
X176.25Y-70.0
X176.25Y-82.5
X176.25Y-94.5
X176.25Y-106.25
X176.25Y-118.25
X176.25Y-130.25
X177.0Y-145.0
X178.0Y-54.25
X178.0Y-70.0
X178.0Y-82.5
X178.0Y-94.5
X178.0Y-106.25
X178.0Y-118.25
X178.0Y-130.25
X178.75Y-145.0
X179.75Y-54.25
X179.75Y-70.0
X179.75Y-82.5
X179.75Y-94.5
X179.75Y-106.25
X179.75Y-118.25
X179.75Y-130.25
X180.5Y-145.0
X181.5Y-54.25
X181.5Y-70.0
X181.5Y-82.5
X181.5Y-94.5
X181.5Y-106.25
X181.5Y-118.25
X181.5Y-130.25
X182.25Y-145.0
X183.0Y-54.25
X183.25Y-70.0
X183.25Y-82.5
X183.25Y-94.5
X183.25Y-106.25
X183.25Y-118.25
X183.25Y-130.25
X183.75Y-145.0
X185.0Y-70.0
X185.0Y-82.5
X185.0Y-94.5
X185.0Y-106.25
X185.0Y-118.25
X185.0Y-130.25
X186.75Y-70.0
X186.75Y-82.5
X186.75Y-94.5
X186.75Y-106.25
X186.75Y-118.25
X186.75Y-130.25
X188.5Y-70.0
X188.5Y-82.5
X188.5Y-94.5
X188.5Y-106.25
X188.5Y-118.25
X188.5Y-130.25
X190.0Y-70.0
X190.0Y-82.5
X190.0Y-94.5
X190.0Y-106.25
X190.0Y-118.25
X190.0Y-130.25
T3
X94.475Y-112.0
X97.015Y-112.0
X98.0Y-85.38
X98.0Y-87.92
X98.0Y-90.46
X98.0Y-93.0
X98.0Y-95.54
X102.25Y-59.75
X102.25Y-64.25
X108.75Y-59.75
X108.75Y-64.25
X115.0Y-59.75
X115.0Y-64.25
X116.5Y-96.71
X116.5Y-99.25
X116.5Y-101.79
X118.5Y-115.475
X118.5Y-118.015
X120.5Y-83.985
X120.5Y-86.525
X121.5Y-59.75
X121.5Y-64.25
X124.5Y-76.31
X124.5Y-78.85
X124.5Y-81.39
X124.5Y-83.93
X124.5Y-86.47
X124.5Y-89.01
X124.5Y-91.55
X124.5Y-94.09
X124.5Y-96.63
X124.5Y-99.17
X124.5Y-101.71
X124.5Y-104.25
X124.5Y-106.79
X124.5Y-109.33
X156.0Y-143.0
X158.54Y-143.0
T4
X145.929Y-116.69
X145.929Y-119.23
X145.929Y-121.77
X145.929Y-124.31
X145.929Y-126.85
X148.469Y-116.69
X148.469Y-119.23
X148.469Y-121.77
X148.469Y-124.31
X148.469Y-126.85
X176.42Y-62.23
X176.42Y-64.77
X176.42Y-74.23
X176.42Y-76.77
X176.42Y-86.23
X176.42Y-88.77
X176.42Y-98.23
X176.42Y-100.77
X176.42Y-110.23
X176.42Y-112.77
X176.42Y-122.23
X176.42Y-124.77
X176.42Y-134.23
X176.42Y-136.77
X178.96Y-62.23
X178.96Y-64.77
X178.96Y-74.23
X178.96Y-76.77
X178.96Y-86.23
X178.96Y-88.77
X178.96Y-98.23
X178.96Y-100.77
X178.96Y-110.23
X178.96Y-112.77
X178.96Y-122.23
X178.96Y-124.77
X178.96Y-134.23
X178.96Y-136.77
X181.5Y-62.23
X181.5Y-64.77
X181.5Y-74.23
X181.5Y-76.77
X181.5Y-86.23
X181.5Y-88.77
X181.5Y-98.23
X181.5Y-100.77
X181.5Y-110.23
X181.5Y-112.77
X181.5Y-122.23
X181.5Y-124.77
X181.5Y-134.23
X181.5Y-136.77
X184.04Y-62.23
X184.04Y-64.77
X184.04Y-74.23
X184.04Y-76.77
X184.04Y-86.23
X184.04Y-88.77
X184.04Y-98.23
X184.04Y-100.77
X184.04Y-110.23
X184.04Y-112.77
X184.04Y-122.23
X184.04Y-124.77
X184.04Y-134.23
X184.04Y-136.77
X186.58Y-62.23
X186.58Y-64.77
X186.58Y-74.23
X186.58Y-76.77
X186.58Y-86.23
X186.58Y-88.77
X186.58Y-98.23
X186.58Y-100.77
X186.58Y-110.23
X186.58Y-112.77
X186.58Y-122.23
X186.58Y-124.77
X186.58Y-134.23
X186.58Y-136.77
T5
X95.75Y-56.5
X95.75Y-142.25
X187.75Y-56.5
X187.75Y-142.25
T2
G00X95.075Y-68.68
M15
G01X94.275Y-68.68
M16
G05
G00X95.075Y-77.32
M15
G01X94.275Y-77.32
M16
G05
G00X99.425Y-68.68
M15
G01X98.325Y-68.68
M16
G05
G00X99.425Y-77.32
M15
G01X98.325Y-77.32
M16
G05
M30
