%TF.GenerationSoftware,KiCad,Pcbnew,9.0.7*%
%TF.CreationDate,2026-02-26T02:16:37-06:00*%
%TF.ProjectId,Main_Board_PCB,4d61696e-5f42-46f6-9172-645f5043422e,rev?*%
%TF.SameCoordinates,Original*%
%TF.FileFunction,Soldermask,Top*%
%TF.FilePolarity,Negative*%
%FSLAX46Y46*%
G04 Gerber Fmt 4.6, Leading zero omitted, Abs format (unit mm)*
G04 Created by KiCad (PCBNEW 9.0.7) date 2026-02-26 02:16:37*
%MOMM*%
%LPD*%
G01*
G04 APERTURE LIST*
G04 Aperture macros list*
%AMRoundRect*
0 Rectangle with rounded corners*
0 $1 Rounding radius*
0 $2 $3 $4 $5 $6 $7 $8 $9 X,Y pos of 4 corners*
0 Add a 4 corners polygon primitive as box body*
4,1,4,$2,$3,$4,$5,$6,$7,$8,$9,$2,$3,0*
0 Add four circle primitives for the rounded corners*
1,1,$1+$1,$2,$3*
1,1,$1+$1,$4,$5*
1,1,$1+$1,$6,$7*
1,1,$1+$1,$8,$9*
0 Add four rect primitives between the rounded corners*
20,1,$1+$1,$2,$3,$4,$5,0*
20,1,$1+$1,$4,$5,$6,$7,0*
20,1,$1+$1,$6,$7,$8,$9,0*
20,1,$1+$1,$8,$9,$2,$3,0*%
G04 Aperture macros list end*
%ADD10RoundRect,0.225000X0.017678X-0.335876X0.335876X-0.017678X-0.017678X0.335876X-0.335876X0.017678X0*%
%ADD11R,1.500000X0.900000*%
%ADD12R,0.900000X1.500000*%
%ADD13R,3.900000X3.900000*%
%ADD14C,5.600000*%
%ADD15RoundRect,0.200000X0.275000X-0.200000X0.275000X0.200000X-0.275000X0.200000X-0.275000X-0.200000X0*%
%ADD16RoundRect,0.200000X0.200000X0.275000X-0.200000X0.275000X-0.200000X-0.275000X0.200000X-0.275000X0*%
%ADD17RoundRect,0.200000X-0.200000X-0.275000X0.200000X-0.275000X0.200000X0.275000X-0.200000X0.275000X0*%
%ADD18RoundRect,0.150000X-0.512500X-0.150000X0.512500X-0.150000X0.512500X0.150000X-0.512500X0.150000X0*%
%ADD19RoundRect,0.200000X-0.275000X0.200000X-0.275000X-0.200000X0.275000X-0.200000X0.275000X0.200000X0*%
%ADD20RoundRect,0.250000X-0.260000X-1.020000X0.260000X-1.020000X0.260000X1.020000X-0.260000X1.020000X0*%
%ADD21R,1.500000X1.000000*%
%ADD22R,1.700000X1.700000*%
%ADD23C,1.700000*%
%ADD24RoundRect,0.218750X0.256250X-0.218750X0.256250X0.218750X-0.256250X0.218750X-0.256250X-0.218750X0*%
%ADD25RoundRect,0.225000X0.250000X-0.225000X0.250000X0.225000X-0.250000X0.225000X-0.250000X-0.225000X0*%
%ADD26C,0.650000*%
%ADD27R,1.240000X0.600000*%
%ADD28R,1.240000X0.300000*%
%ADD29O,2.100000X1.000000*%
%ADD30O,1.800000X1.000000*%
%ADD31C,1.854000*%
%ADD32RoundRect,0.102000X-0.825000X0.825000X-0.825000X-0.825000X0.825000X-0.825000X0.825000X0.825000X0*%
%ADD33RoundRect,0.225000X-0.250000X0.225000X-0.250000X-0.225000X0.250000X-0.225000X0.250000X0.225000X0*%
%ADD34R,1.676400X1.676400*%
%ADD35R,0.254000X0.914400*%
%ADD36R,0.914400X0.254000*%
%ADD37RoundRect,0.102000X0.825000X0.825000X-0.825000X0.825000X-0.825000X-0.825000X0.825000X-0.825000X0*%
%ADD38RoundRect,0.225000X-0.225000X-0.250000X0.225000X-0.250000X0.225000X0.250000X-0.225000X0.250000X0*%
%ADD39RoundRect,0.225000X0.225000X0.250000X-0.225000X0.250000X-0.225000X-0.250000X0.225000X-0.250000X0*%
%ADD40RoundRect,0.225000X0.335876X0.017678X0.017678X0.335876X-0.335876X-0.017678X-0.017678X-0.335876X0*%
%ADD41RoundRect,0.150000X-0.587500X-0.150000X0.587500X-0.150000X0.587500X0.150000X-0.587500X0.150000X0*%
%ADD42RoundRect,0.218750X-0.218750X-0.256250X0.218750X-0.256250X0.218750X0.256250X-0.218750X0.256250X0*%
G04 APERTURE END LIST*
%TO.C,JP2*%
G36*
X112500000Y-126650000D02*
G01*
X114000000Y-126650000D01*
X114000000Y-126350000D01*
X112500000Y-126350000D01*
X112500000Y-126650000D01*
G37*
%TO.C,JP1*%
G36*
X139250000Y-100450000D02*
G01*
X137750000Y-100450000D01*
X137750000Y-102050000D01*
X139250000Y-102050000D01*
X139250000Y-100450000D01*
G37*
%TD*%
D10*
%TO.C,C12*%
X162701992Y-61298008D03*
X163798008Y-60201992D03*
%TD*%
D11*
%TO.C,U2*%
X131250000Y-54490000D03*
X131250000Y-55760000D03*
X131250000Y-57030000D03*
X131250000Y-58300000D03*
X131250000Y-59570000D03*
X131250000Y-60840000D03*
X131250000Y-62110000D03*
X131250000Y-63380000D03*
X131250000Y-64650000D03*
X131250000Y-65920000D03*
X131250000Y-67190000D03*
X131250000Y-68460000D03*
X131250000Y-69730000D03*
X131250000Y-71000000D03*
D12*
X133015000Y-72250000D03*
X134285000Y-72250000D03*
X135555000Y-72250000D03*
X136825000Y-72250000D03*
X138095000Y-72250000D03*
X139365000Y-72250000D03*
X140635000Y-72250000D03*
X141905000Y-72250000D03*
X143175000Y-72250000D03*
X144445000Y-72250000D03*
X145715000Y-72250000D03*
X146985000Y-72250000D03*
D11*
X148750000Y-71000000D03*
X148750000Y-69730000D03*
X148750000Y-68460000D03*
X148750000Y-67190000D03*
X148750000Y-65920000D03*
X148750000Y-64650000D03*
X148750000Y-63380000D03*
X148750000Y-62110000D03*
X148750000Y-60840000D03*
X148750000Y-59570000D03*
X148750000Y-58300000D03*
X148750000Y-57030000D03*
X148750000Y-55760000D03*
X148750000Y-54490000D03*
D13*
X138500000Y-62210000D03*
%TD*%
D14*
%TO.C,H4*%
X187750000Y-142250000D03*
%TD*%
D15*
%TO.C,R19*%
X127750000Y-73425000D03*
X127750000Y-75075000D03*
%TD*%
D16*
%TO.C,R3*%
X154425000Y-108750000D03*
X156075000Y-108750000D03*
%TD*%
D17*
%TO.C,R2*%
X158825000Y-107000000D03*
X157175000Y-107000000D03*
%TD*%
D18*
%TO.C,U1*%
X103112500Y-124050000D03*
X103112500Y-125000000D03*
X103112500Y-125950000D03*
X105387500Y-125950000D03*
X105387500Y-125000000D03*
X105387500Y-124050000D03*
%TD*%
D19*
%TO.C,R17*%
X113250000Y-129675000D03*
X113250000Y-131325000D03*
%TD*%
D16*
%TO.C,R15*%
X105075000Y-122250000D03*
X103425000Y-122250000D03*
%TD*%
D17*
%TO.C,R14*%
X103425000Y-120500000D03*
X105075000Y-120500000D03*
%TD*%
%TO.C,R13*%
X107350000Y-125000000D03*
X109000000Y-125000000D03*
%TD*%
D20*
%TO.C,L1*%
X103105000Y-128750000D03*
X105395000Y-128750000D03*
%TD*%
D21*
%TO.C,JP2*%
X113250000Y-127150000D03*
X113250000Y-125850000D03*
%TD*%
D22*
%TO.C,J16*%
X116500000Y-96710000D03*
D23*
X116500000Y-99250000D03*
X116500000Y-101790000D03*
%TD*%
D24*
%TO.C,D1*%
X113250000Y-134537500D03*
X113250000Y-132962500D03*
%TD*%
D25*
%TO.C,C7*%
X111000000Y-131275000D03*
X111000000Y-129725000D03*
%TD*%
%TO.C,C5*%
X109250000Y-131275000D03*
X109250000Y-129725000D03*
%TD*%
%TO.C,C4*%
X107500000Y-131275000D03*
X107500000Y-129725000D03*
%TD*%
%TO.C,C3*%
X101000000Y-125775000D03*
X101000000Y-124225000D03*
%TD*%
D26*
%TO.C,J4*%
X98355000Y-70110000D03*
X98355000Y-75890000D03*
D27*
X99475000Y-69800000D03*
X99475000Y-70600000D03*
D28*
X99475000Y-71750000D03*
X99475000Y-72750000D03*
X99475000Y-73250000D03*
X99475000Y-74250000D03*
D27*
X99475000Y-75400000D03*
X99475000Y-76200000D03*
X99475000Y-76200000D03*
X99475000Y-75400000D03*
D28*
X99475000Y-74750000D03*
X99475000Y-73750000D03*
X99475000Y-72250000D03*
X99475000Y-71250000D03*
D27*
X99475000Y-70600000D03*
X99475000Y-69800000D03*
D29*
X98875000Y-68680000D03*
D30*
X94675000Y-68680000D03*
D29*
X98875000Y-77320000D03*
D30*
X94675000Y-77320000D03*
%TD*%
D31*
%TO.C,J15*%
X148468840Y-126850000D03*
X145928840Y-126850000D03*
X148468840Y-124310000D03*
X145928840Y-124310000D03*
X148468840Y-121770000D03*
X145928840Y-121770000D03*
X148468840Y-119230000D03*
X145928840Y-119230000D03*
X148468840Y-116690000D03*
D32*
X145928840Y-116690000D03*
%TD*%
D25*
%TO.C,C15*%
X172250000Y-74725000D03*
X172250000Y-76275000D03*
%TD*%
D33*
%TO.C,C11*%
X165750000Y-58475000D03*
X165750000Y-60025000D03*
%TD*%
D34*
%TO.C,U3*%
X166000000Y-63500000D03*
D35*
X166750001Y-65024000D03*
X166250000Y-65024000D03*
X165750000Y-65024000D03*
X165249999Y-65024000D03*
D36*
X164476000Y-64250001D03*
X164476000Y-63750000D03*
X164476000Y-63250000D03*
X164476000Y-62749999D03*
D35*
X165249999Y-61976000D03*
X165750000Y-61976000D03*
X166250000Y-61976000D03*
X166750001Y-61976000D03*
D36*
X167524000Y-62749999D03*
X167524000Y-63250000D03*
X167524000Y-63750000D03*
X167524000Y-64250001D03*
%TD*%
D31*
%TO.C,J11*%
X176420000Y-100770000D03*
X176420000Y-98230000D03*
X178960000Y-100770000D03*
X178960000Y-98230000D03*
X181500000Y-100770000D03*
X181500000Y-98230000D03*
X184040000Y-100770000D03*
X184040000Y-98230000D03*
X186580000Y-100770000D03*
D37*
X186580000Y-98230000D03*
%TD*%
D31*
%TO.C,J8*%
X176420000Y-64770000D03*
X176420000Y-62230000D03*
X178960000Y-64770000D03*
X178960000Y-62230000D03*
X181500000Y-64770000D03*
X181500000Y-62230000D03*
X184040000Y-64770000D03*
X184040000Y-62230000D03*
X186580000Y-64770000D03*
D37*
X186580000Y-62230000D03*
%TD*%
D25*
%TO.C,C9*%
X173750000Y-62725000D03*
X173750000Y-64275000D03*
%TD*%
D19*
%TO.C,R29*%
X162500000Y-64925000D03*
X162500000Y-66575000D03*
%TD*%
D15*
%TO.C,R28*%
X160750000Y-66575000D03*
X160750000Y-64925000D03*
%TD*%
D38*
%TO.C,C13*%
X160975000Y-63250000D03*
X162525000Y-63250000D03*
%TD*%
D25*
%TO.C,C10*%
X172250000Y-62725000D03*
X172250000Y-64275000D03*
%TD*%
D33*
%TO.C,C16*%
X165750000Y-70475000D03*
X165750000Y-72025000D03*
%TD*%
D38*
%TO.C,C23*%
X160975000Y-87250000D03*
X162525000Y-87250000D03*
%TD*%
D19*
%TO.C,R39*%
X162500000Y-124925000D03*
X162500000Y-126575000D03*
%TD*%
D25*
%TO.C,C35*%
X172000000Y-124275000D03*
X172000000Y-122725000D03*
%TD*%
D38*
%TO.C,C33*%
X160975000Y-111250000D03*
X162525000Y-111250000D03*
%TD*%
D36*
%TO.C,U7*%
X167524000Y-112250001D03*
X167524000Y-111750000D03*
X167524000Y-111250000D03*
X167524000Y-110749999D03*
D35*
X166750001Y-109976000D03*
X166250000Y-109976000D03*
X165750000Y-109976000D03*
X165249999Y-109976000D03*
D36*
X164476000Y-110749999D03*
X164476000Y-111250000D03*
X164476000Y-111750000D03*
X164476000Y-112250001D03*
D35*
X165249999Y-113024000D03*
X165750000Y-113024000D03*
X166250000Y-113024000D03*
X166750001Y-113024000D03*
D34*
X166000000Y-111500000D03*
%TD*%
D36*
%TO.C,U8*%
X167524000Y-124250001D03*
X167524000Y-123750000D03*
X167524000Y-123250000D03*
X167524000Y-122749999D03*
D35*
X166750001Y-121976000D03*
X166250000Y-121976000D03*
X165750000Y-121976000D03*
X165249999Y-121976000D03*
D36*
X164476000Y-122749999D03*
X164476000Y-123250000D03*
X164476000Y-123750000D03*
X164476000Y-124250001D03*
D35*
X165249999Y-125024000D03*
X165750000Y-125024000D03*
X166250000Y-125024000D03*
X166750001Y-125024000D03*
D34*
X166000000Y-123500000D03*
%TD*%
D14*
%TO.C,H2*%
X95750000Y-56500000D03*
%TD*%
D39*
%TO.C,C44*%
X147973840Y-129520000D03*
X146423840Y-129520000D03*
%TD*%
D16*
%TO.C,R6*%
X117750000Y-86500000D03*
X116100000Y-86500000D03*
%TD*%
D19*
%TO.C,R7*%
X101750000Y-87825000D03*
X101750000Y-86175000D03*
%TD*%
D33*
%TO.C,C2*%
X111000000Y-59725000D03*
X111000000Y-61275000D03*
%TD*%
D37*
%TO.C,J13*%
X186580000Y-122230000D03*
D31*
X186580000Y-124770000D03*
X184040000Y-122230000D03*
X184040000Y-124770000D03*
X181500000Y-122230000D03*
X181500000Y-124770000D03*
X178960000Y-122230000D03*
X178960000Y-124770000D03*
X176420000Y-122230000D03*
X176420000Y-124770000D03*
%TD*%
D40*
%TO.C,C47*%
X144996848Y-140568008D03*
X143900832Y-139471992D03*
%TD*%
D33*
%TO.C,C8*%
X128750000Y-54225000D03*
X128750000Y-55775000D03*
%TD*%
D15*
%TO.C,R36*%
X160750000Y-114575000D03*
X160750000Y-112925000D03*
%TD*%
D41*
%TO.C,Q1*%
X103812500Y-87800000D03*
X103812500Y-89700000D03*
X105687500Y-88750000D03*
%TD*%
D16*
%TO.C,R42*%
X150273840Y-142520000D03*
X148623840Y-142520000D03*
%TD*%
D19*
%TO.C,R4*%
X111000000Y-56500000D03*
X111000000Y-58150000D03*
%TD*%
D38*
%TO.C,C38*%
X160975000Y-123250000D03*
X162525000Y-123250000D03*
%TD*%
D10*
%TO.C,C32*%
X162701992Y-109298008D03*
X163798008Y-108201992D03*
%TD*%
D17*
%TO.C,R9*%
X102675000Y-71750000D03*
X104325000Y-71750000D03*
%TD*%
D25*
%TO.C,C30*%
X172000000Y-112275000D03*
X172000000Y-110725000D03*
%TD*%
D33*
%TO.C,C41*%
X165725000Y-130475000D03*
X165725000Y-132025000D03*
%TD*%
D19*
%TO.C,R37*%
X162500000Y-112925000D03*
X162500000Y-114575000D03*
%TD*%
D38*
%TO.C,C43*%
X160975000Y-135250000D03*
X162525000Y-135250000D03*
%TD*%
D10*
%TO.C,C27*%
X162701992Y-97298008D03*
X163798008Y-96201992D03*
%TD*%
D36*
%TO.C,U6*%
X167524000Y-100250001D03*
X167524000Y-99750000D03*
X167524000Y-99250000D03*
X167524000Y-98749999D03*
D35*
X166750001Y-97976000D03*
X166250000Y-97976000D03*
X165750000Y-97976000D03*
X165249999Y-97976000D03*
D36*
X164476000Y-98749999D03*
X164476000Y-99250000D03*
X164476000Y-99750000D03*
X164476000Y-100250001D03*
D35*
X165249999Y-101024000D03*
X165750000Y-101024000D03*
X166250000Y-101024000D03*
X166750001Y-101024000D03*
D34*
X166000000Y-99500000D03*
%TD*%
D19*
%TO.C,R41*%
X162500000Y-136925000D03*
X162500000Y-138575000D03*
%TD*%
D10*
%TO.C,C22*%
X162701992Y-85298008D03*
X163798008Y-84201992D03*
%TD*%
D36*
%TO.C,U5*%
X167524000Y-88250001D03*
X167524000Y-87750000D03*
X167524000Y-87250000D03*
X167524000Y-86749999D03*
D35*
X166750001Y-85976000D03*
X166250000Y-85976000D03*
X165750000Y-85976000D03*
X165249999Y-85976000D03*
D36*
X164476000Y-86749999D03*
X164476000Y-87250000D03*
X164476000Y-87750000D03*
X164476000Y-88250001D03*
D35*
X165249999Y-89024000D03*
X165750000Y-89024000D03*
X166250000Y-89024000D03*
X166750001Y-89024000D03*
D34*
X166000000Y-87500000D03*
%TD*%
D25*
%TO.C,C39*%
X173750000Y-136275000D03*
X173750000Y-134725000D03*
%TD*%
D16*
%TO.C,R27*%
X149575000Y-84500000D03*
X147925000Y-84500000D03*
%TD*%
D17*
%TO.C,R43*%
X148623840Y-140770000D03*
X150273840Y-140770000D03*
%TD*%
D15*
%TO.C,R16*%
X136000000Y-101250000D03*
X136000000Y-99600000D03*
%TD*%
D37*
%TO.C,J12*%
X186580000Y-110230000D03*
D31*
X186580000Y-112770000D03*
X184040000Y-110230000D03*
X184040000Y-112770000D03*
X181500000Y-110230000D03*
X181500000Y-112770000D03*
X178960000Y-110230000D03*
X178960000Y-112770000D03*
X176420000Y-110230000D03*
X176420000Y-112770000D03*
%TD*%
D16*
%TO.C,R5*%
X117750000Y-84000000D03*
X116100000Y-84000000D03*
%TD*%
D15*
%TO.C,R20*%
X155750000Y-58575000D03*
X155750000Y-56925000D03*
%TD*%
D33*
%TO.C,C36*%
X165750000Y-118475000D03*
X165750000Y-120025000D03*
%TD*%
D25*
%TO.C,C25*%
X172000000Y-100300000D03*
X172000000Y-98750000D03*
%TD*%
D33*
%TO.C,C21*%
X165750000Y-82475000D03*
X165750000Y-84025000D03*
%TD*%
D22*
%TO.C,J1*%
X124500000Y-109330000D03*
D23*
X124500000Y-106790000D03*
X124500000Y-104250000D03*
X124500000Y-101710000D03*
X124500000Y-99170000D03*
X124500000Y-96630000D03*
X124500000Y-94090000D03*
X124500000Y-91550000D03*
X124500000Y-89010000D03*
X124500000Y-86470000D03*
X124500000Y-83930000D03*
X124500000Y-81390000D03*
X124500000Y-78850000D03*
X124500000Y-76310000D03*
%TD*%
D42*
%TO.C,D2*%
X113962500Y-70000000D03*
X115537500Y-70000000D03*
%TD*%
D16*
%TO.C,R18*%
X118825000Y-70000000D03*
X117175000Y-70000000D03*
%TD*%
D15*
%TO.C,R38*%
X160750000Y-126575000D03*
X160750000Y-124925000D03*
%TD*%
%TO.C,R30*%
X160750000Y-78575000D03*
X160750000Y-76925000D03*
%TD*%
D16*
%TO.C,R22*%
X149575000Y-77000000D03*
X147925000Y-77000000D03*
%TD*%
D14*
%TO.C,H3*%
X95750000Y-142250000D03*
%TD*%
D22*
%TO.C,J3*%
X120500000Y-86525000D03*
D23*
X120500000Y-83985000D03*
%TD*%
D25*
%TO.C,C19*%
X173750000Y-88275000D03*
X173750000Y-86725000D03*
%TD*%
D23*
%TO.C,SW2*%
X102250000Y-59750000D03*
X108750000Y-59750000D03*
X102250000Y-64250000D03*
X108750000Y-64250000D03*
%TD*%
D41*
%TO.C,Q2*%
X103812500Y-84050000D03*
X103812500Y-85950000D03*
X105687500Y-85000000D03*
%TD*%
D35*
%TO.C,U10*%
X147948841Y-135746000D03*
X147448840Y-135746000D03*
X146948840Y-135746000D03*
X146448839Y-135746000D03*
D36*
X145674840Y-136519999D03*
X145674840Y-137020000D03*
X145674840Y-137520000D03*
X145674840Y-138020001D03*
D35*
X146448839Y-138794000D03*
X146948840Y-138794000D03*
X147448840Y-138794000D03*
X147948841Y-138794000D03*
D36*
X148722840Y-138020001D03*
X148722840Y-137520000D03*
X148722840Y-137020000D03*
X148722840Y-136519999D03*
D34*
X147198840Y-137270000D03*
%TD*%
D16*
%TO.C,R23*%
X149575000Y-78500000D03*
X147925000Y-78500000D03*
%TD*%
%TO.C,R26*%
X149575000Y-83000000D03*
X147925000Y-83000000D03*
%TD*%
%TO.C,R25*%
X149575000Y-81500000D03*
X147925000Y-81500000D03*
%TD*%
D33*
%TO.C,C6*%
X127000000Y-54225000D03*
X127000000Y-55775000D03*
%TD*%
D23*
%TO.C,SW1*%
X115000000Y-59750000D03*
X121500000Y-59750000D03*
X115000000Y-64250000D03*
X121500000Y-64250000D03*
%TD*%
D10*
%TO.C,C17*%
X162701992Y-73298008D03*
X163798008Y-72201992D03*
%TD*%
D14*
%TO.C,H1*%
X187750000Y-56500000D03*
%TD*%
D10*
%TO.C,C37*%
X162701992Y-121298008D03*
X163798008Y-120201992D03*
%TD*%
D16*
%TO.C,R24*%
X149575000Y-80000000D03*
X147925000Y-80000000D03*
%TD*%
D15*
%TO.C,R21*%
X157250000Y-58575000D03*
X157250000Y-56925000D03*
%TD*%
D19*
%TO.C,R35*%
X162500000Y-100925000D03*
X162500000Y-102575000D03*
%TD*%
D37*
%TO.C,J14*%
X186580000Y-134230000D03*
D31*
X186580000Y-136770000D03*
X184040000Y-134230000D03*
X184040000Y-136770000D03*
X181500000Y-134230000D03*
X181500000Y-136770000D03*
X178960000Y-134230000D03*
X178960000Y-136770000D03*
X176420000Y-134230000D03*
X176420000Y-136770000D03*
%TD*%
D25*
%TO.C,C40*%
X172000000Y-136275000D03*
X172000000Y-134725000D03*
%TD*%
D33*
%TO.C,C31*%
X165750000Y-106475000D03*
X165750000Y-108025000D03*
%TD*%
D19*
%TO.C,R8*%
X101750000Y-89675000D03*
X101750000Y-91325000D03*
%TD*%
%TO.C,R31*%
X162500000Y-76925000D03*
X162500000Y-78575000D03*
%TD*%
D38*
%TO.C,C18*%
X160975000Y-75250000D03*
X162525000Y-75250000D03*
%TD*%
D15*
%TO.C,R40*%
X160750000Y-138575000D03*
X160750000Y-136925000D03*
%TD*%
D33*
%TO.C,C26*%
X165750000Y-94475000D03*
X165750000Y-96025000D03*
%TD*%
D25*
%TO.C,C48*%
X146948840Y-142295000D03*
X146948840Y-140745000D03*
%TD*%
%TO.C,C20*%
X172000000Y-88275000D03*
X172000000Y-86725000D03*
%TD*%
D22*
%TO.C,J5*%
X94475000Y-112000000D03*
D23*
X97015000Y-112000000D03*
%TD*%
D36*
%TO.C,U4*%
X167524000Y-76250001D03*
X167524000Y-75750000D03*
X167524000Y-75250000D03*
X167524000Y-74749999D03*
D35*
X166750001Y-73976000D03*
X166250000Y-73976000D03*
X165750000Y-73976000D03*
X165249999Y-73976000D03*
D36*
X164476000Y-74749999D03*
X164476000Y-75250000D03*
X164476000Y-75750000D03*
X164476000Y-76250001D03*
D35*
X165249999Y-77024000D03*
X165750000Y-77024000D03*
X166250000Y-77024000D03*
X166750001Y-77024000D03*
D34*
X166000000Y-75500000D03*
%TD*%
D17*
%TO.C,R12*%
X108175000Y-85000000D03*
X109825000Y-85000000D03*
%TD*%
D25*
%TO.C,C29*%
X173750000Y-112275000D03*
X173750000Y-110725000D03*
%TD*%
D15*
%TO.C,R32*%
X160750000Y-90575000D03*
X160750000Y-88925000D03*
%TD*%
D19*
%TO.C,R33*%
X162500000Y-88925000D03*
X162500000Y-90575000D03*
%TD*%
D36*
%TO.C,U9*%
X167524000Y-136250001D03*
X167524000Y-135750000D03*
X167524000Y-135250000D03*
X167524000Y-134749999D03*
D35*
X166750001Y-133976000D03*
X166250000Y-133976000D03*
X165750000Y-133976000D03*
X165249999Y-133976000D03*
D36*
X164476000Y-134749999D03*
X164476000Y-135250000D03*
X164476000Y-135750000D03*
X164476000Y-136250001D03*
D35*
X165249999Y-137024000D03*
X165750000Y-137024000D03*
X166250000Y-137024000D03*
X166750001Y-137024000D03*
D34*
X166000000Y-135500000D03*
%TD*%
D19*
%TO.C,R1*%
X123750000Y-56425000D03*
X123750000Y-58075000D03*
%TD*%
D25*
%TO.C,C34*%
X173750000Y-124275000D03*
X173750000Y-122725000D03*
%TD*%
%TO.C,C24*%
X173750000Y-100275000D03*
X173750000Y-98725000D03*
%TD*%
D15*
%TO.C,R34*%
X160750000Y-102575000D03*
X160750000Y-100925000D03*
%TD*%
D22*
%TO.C,J7*%
X98000000Y-85380000D03*
D23*
X98000000Y-87920000D03*
X98000000Y-90460000D03*
X98000000Y-93000000D03*
X98000000Y-95540000D03*
%TD*%
D38*
%TO.C,C28*%
X160975000Y-99250000D03*
X162525000Y-99250000D03*
%TD*%
D22*
%TO.C,J6*%
X118500000Y-115475000D03*
D23*
X118500000Y-118015000D03*
%TD*%
D39*
%TO.C,C45*%
X147973840Y-131270000D03*
X146423840Y-131270000D03*
%TD*%
D31*
%TO.C,J10*%
X176420000Y-88770000D03*
X176420000Y-86230000D03*
X178960000Y-88770000D03*
X178960000Y-86230000D03*
X181500000Y-88770000D03*
X181500000Y-86230000D03*
X184040000Y-88770000D03*
X184040000Y-86230000D03*
X186580000Y-88770000D03*
D37*
X186580000Y-86230000D03*
%TD*%
D33*
%TO.C,C1*%
X123750000Y-59725000D03*
X123750000Y-61275000D03*
%TD*%
D21*
%TO.C,JP1*%
X138500000Y-99950000D03*
X138500000Y-101250000D03*
X138500000Y-102550000D03*
%TD*%
D38*
%TO.C,C46*%
X142173840Y-137520000D03*
X143723840Y-137520000D03*
%TD*%
D16*
%TO.C,R10*%
X104325000Y-74750000D03*
X102675000Y-74750000D03*
%TD*%
D10*
%TO.C,C42*%
X162701992Y-133298008D03*
X163798008Y-132201992D03*
%TD*%
D17*
%TO.C,R11*%
X108175000Y-88750000D03*
X109825000Y-88750000D03*
%TD*%
D22*
%TO.C,J2*%
X158540000Y-143000000D03*
D23*
X156000000Y-143000000D03*
%TD*%
D25*
%TO.C,C14*%
X173750000Y-76275000D03*
X173750000Y-74725000D03*
%TD*%
D37*
%TO.C,J9*%
X186580000Y-74230000D03*
D31*
X186580000Y-76770000D03*
X184040000Y-74230000D03*
X184040000Y-76770000D03*
X181500000Y-74230000D03*
X181500000Y-76770000D03*
X178960000Y-74230000D03*
X178960000Y-76770000D03*
X176420000Y-74230000D03*
X176420000Y-76770000D03*
%TD*%
M02*
