M48
; DRILL file {KiCad 9.0.7} date 2026-03-30T21:50:02-0500
; FORMAT={-:-/ absolute / metric / decimal}
; #@! TF.CreationDate,2026-03-30T21:50:02-05:00
; #@! TF.GenerationSoftware,Kicad,Pcbnew,9.0.7
; #@! TF.FileFunction,Plated,1,2,PTH
FMAT,2
METRIC
; #@! TA.AperFunction,Plated,PTH,ViaDrill
T1C0.300
; #@! TA.AperFunction,Plated,PTH,ComponentDrill
T2C0.750
; #@! TA.AperFunction,Plated,PTH,ComponentDrill
T3C0.864
; #@! TA.AperFunction,Plated,PTH,ComponentDrill
T4C1.000
; #@! TA.AperFunction,Plated,PTH,ComponentDrill
T5C2.200
%
G90
G05
T1
X141.3Y-101.375
X141.85Y-80.1
X144.4Y-85.7
X146.1Y-100.175
X147.65Y-107.075
X148.55Y-72.475
X149.65Y-75.15
X152.4Y-104.725
X166.2Y-75.075
X167.1Y-103.025
X169.25Y-72.975
X172.75Y-80.975
X175.0Y-97.175
X175.75Y-78.925
T2
X157.63Y-105.775
X158.9Y-105.775
X160.17Y-105.775
T3
X163.973Y-105.775
X166.513Y-105.775
T4
X142.15Y-84.695
X142.15Y-87.235
X142.15Y-89.775
X142.15Y-92.315
X142.15Y-94.855
X156.36Y-73.025
X158.9Y-73.025
X161.44Y-73.025
X175.4Y-85.715
X175.4Y-88.255
X175.4Y-90.795
X175.4Y-93.335
T5
X142.9Y-73.675
X142.9Y-105.675
X174.9Y-73.675
X174.9Y-105.675
M30
