%TF.GenerationSoftware,KiCad,Pcbnew,9.0.7*%
%TF.CreationDate,2026-03-30T21:50:06-05:00*%
%TF.ProjectId,Tile_PCB,54696c65-5f50-4434-922e-6b696361645f,rev?*%
%TF.SameCoordinates,Original*%
%TF.FileFunction,Legend,Top*%
%TF.FilePolarity,Positive*%
%FSLAX46Y46*%
G04 Gerber Fmt 4.6, Leading zero omitted, Abs format (unit mm)*
G04 Created by KiCad (PCBNEW 9.0.7) date 2026-03-30 21:50:06*
%MOMM*%
%LPD*%
G01*
G04 APERTURE LIST*
%ADD10C,0.150000*%
%ADD11C,0.100000*%
%ADD12C,0.120000*%
%ADD13C,0.152400*%
G04 APERTURE END LIST*
D10*
X161017438Y-77189411D02*
X160969819Y-77284649D01*
X160969819Y-77284649D02*
X160969819Y-77427506D01*
X160969819Y-77427506D02*
X161017438Y-77570363D01*
X161017438Y-77570363D02*
X161112676Y-77665601D01*
X161112676Y-77665601D02*
X161207914Y-77713220D01*
X161207914Y-77713220D02*
X161398390Y-77760839D01*
X161398390Y-77760839D02*
X161541247Y-77760839D01*
X161541247Y-77760839D02*
X161731723Y-77713220D01*
X161731723Y-77713220D02*
X161826961Y-77665601D01*
X161826961Y-77665601D02*
X161922200Y-77570363D01*
X161922200Y-77570363D02*
X161969819Y-77427506D01*
X161969819Y-77427506D02*
X161969819Y-77332268D01*
X161969819Y-77332268D02*
X161922200Y-77189411D01*
X161922200Y-77189411D02*
X161874580Y-77141792D01*
X161874580Y-77141792D02*
X161541247Y-77141792D01*
X161541247Y-77141792D02*
X161541247Y-77332268D01*
X161969819Y-76713220D02*
X160969819Y-76713220D01*
X160969819Y-76713220D02*
X161969819Y-76141792D01*
X161969819Y-76141792D02*
X160969819Y-76141792D01*
X161969819Y-75665601D02*
X160969819Y-75665601D01*
X160969819Y-75665601D02*
X160969819Y-75427506D01*
X160969819Y-75427506D02*
X161017438Y-75284649D01*
X161017438Y-75284649D02*
X161112676Y-75189411D01*
X161112676Y-75189411D02*
X161207914Y-75141792D01*
X161207914Y-75141792D02*
X161398390Y-75094173D01*
X161398390Y-75094173D02*
X161541247Y-75094173D01*
X161541247Y-75094173D02*
X161731723Y-75141792D01*
X161731723Y-75141792D02*
X161826961Y-75189411D01*
X161826961Y-75189411D02*
X161922200Y-75284649D01*
X161922200Y-75284649D02*
X161969819Y-75427506D01*
X161969819Y-75427506D02*
X161969819Y-75665601D01*
X159219819Y-81937030D02*
X159219819Y-82413220D01*
X159219819Y-82413220D02*
X158219819Y-82413220D01*
X158696009Y-81603696D02*
X158696009Y-81270363D01*
X159219819Y-81127506D02*
X159219819Y-81603696D01*
X159219819Y-81603696D02*
X158219819Y-81603696D01*
X158219819Y-81603696D02*
X158219819Y-81127506D01*
X159219819Y-80698934D02*
X158219819Y-80698934D01*
X158219819Y-80698934D02*
X158219819Y-80460839D01*
X158219819Y-80460839D02*
X158267438Y-80317982D01*
X158267438Y-80317982D02*
X158362676Y-80222744D01*
X158362676Y-80222744D02*
X158457914Y-80175125D01*
X158457914Y-80175125D02*
X158648390Y-80127506D01*
X158648390Y-80127506D02*
X158791247Y-80127506D01*
X158791247Y-80127506D02*
X158981723Y-80175125D01*
X158981723Y-80175125D02*
X159076961Y-80222744D01*
X159076961Y-80222744D02*
X159172200Y-80317982D01*
X159172200Y-80317982D02*
X159219819Y-80460839D01*
X159219819Y-80460839D02*
X159219819Y-80698934D01*
X159315057Y-79937030D02*
X159315057Y-79175125D01*
X159219819Y-78937029D02*
X158219819Y-78937029D01*
X158219819Y-78937029D02*
X158219819Y-78698934D01*
X158219819Y-78698934D02*
X158267438Y-78556077D01*
X158267438Y-78556077D02*
X158362676Y-78460839D01*
X158362676Y-78460839D02*
X158457914Y-78413220D01*
X158457914Y-78413220D02*
X158648390Y-78365601D01*
X158648390Y-78365601D02*
X158791247Y-78365601D01*
X158791247Y-78365601D02*
X158981723Y-78413220D01*
X158981723Y-78413220D02*
X159076961Y-78460839D01*
X159076961Y-78460839D02*
X159172200Y-78556077D01*
X159172200Y-78556077D02*
X159219819Y-78698934D01*
X159219819Y-78698934D02*
X159219819Y-78937029D01*
X159219819Y-77937029D02*
X158553152Y-77937029D01*
X158743628Y-77937029D02*
X158648390Y-77889410D01*
X158648390Y-77889410D02*
X158600771Y-77841791D01*
X158600771Y-77841791D02*
X158553152Y-77746553D01*
X158553152Y-77746553D02*
X158553152Y-77651315D01*
X159219819Y-77317981D02*
X158553152Y-77317981D01*
X158219819Y-77317981D02*
X158267438Y-77365600D01*
X158267438Y-77365600D02*
X158315057Y-77317981D01*
X158315057Y-77317981D02*
X158267438Y-77270362D01*
X158267438Y-77270362D02*
X158219819Y-77317981D01*
X158219819Y-77317981D02*
X158315057Y-77317981D01*
X158553152Y-76937029D02*
X159219819Y-76698934D01*
X159219819Y-76698934D02*
X158553152Y-76460839D01*
X159172200Y-75698934D02*
X159219819Y-75794172D01*
X159219819Y-75794172D02*
X159219819Y-75984648D01*
X159219819Y-75984648D02*
X159172200Y-76079886D01*
X159172200Y-76079886D02*
X159076961Y-76127505D01*
X159076961Y-76127505D02*
X158696009Y-76127505D01*
X158696009Y-76127505D02*
X158600771Y-76079886D01*
X158600771Y-76079886D02*
X158553152Y-75984648D01*
X158553152Y-75984648D02*
X158553152Y-75794172D01*
X158553152Y-75794172D02*
X158600771Y-75698934D01*
X158600771Y-75698934D02*
X158696009Y-75651315D01*
X158696009Y-75651315D02*
X158791247Y-75651315D01*
X158791247Y-75651315D02*
X158886485Y-76127505D01*
X159219819Y-75222743D02*
X158553152Y-75222743D01*
X158743628Y-75222743D02*
X158648390Y-75175124D01*
X158648390Y-75175124D02*
X158600771Y-75127505D01*
X158600771Y-75127505D02*
X158553152Y-75032267D01*
X158553152Y-75032267D02*
X158553152Y-74937029D01*
X155919819Y-76187030D02*
X155919819Y-76663220D01*
X155919819Y-76663220D02*
X156396009Y-76710839D01*
X156396009Y-76710839D02*
X156348390Y-76663220D01*
X156348390Y-76663220D02*
X156300771Y-76567982D01*
X156300771Y-76567982D02*
X156300771Y-76329887D01*
X156300771Y-76329887D02*
X156348390Y-76234649D01*
X156348390Y-76234649D02*
X156396009Y-76187030D01*
X156396009Y-76187030D02*
X156491247Y-76139411D01*
X156491247Y-76139411D02*
X156729342Y-76139411D01*
X156729342Y-76139411D02*
X156824580Y-76187030D01*
X156824580Y-76187030D02*
X156872200Y-76234649D01*
X156872200Y-76234649D02*
X156919819Y-76329887D01*
X156919819Y-76329887D02*
X156919819Y-76567982D01*
X156919819Y-76567982D02*
X156872200Y-76663220D01*
X156872200Y-76663220D02*
X156824580Y-76710839D01*
X155919819Y-75853696D02*
X156919819Y-75520363D01*
X156919819Y-75520363D02*
X155919819Y-75187030D01*
X166312969Y-86119819D02*
X165836779Y-86119819D01*
X165836779Y-86119819D02*
X165836779Y-85119819D01*
X166646303Y-85596009D02*
X166979636Y-85596009D01*
X167122493Y-86119819D02*
X166646303Y-86119819D01*
X166646303Y-86119819D02*
X166646303Y-85119819D01*
X166646303Y-85119819D02*
X167122493Y-85119819D01*
X167551065Y-86119819D02*
X167551065Y-85119819D01*
X167551065Y-85119819D02*
X167789160Y-85119819D01*
X167789160Y-85119819D02*
X167932017Y-85167438D01*
X167932017Y-85167438D02*
X168027255Y-85262676D01*
X168027255Y-85262676D02*
X168074874Y-85357914D01*
X168074874Y-85357914D02*
X168122493Y-85548390D01*
X168122493Y-85548390D02*
X168122493Y-85691247D01*
X168122493Y-85691247D02*
X168074874Y-85881723D01*
X168074874Y-85881723D02*
X168027255Y-85976961D01*
X168027255Y-85976961D02*
X167932017Y-86072200D01*
X167932017Y-86072200D02*
X167789160Y-86119819D01*
X167789160Y-86119819D02*
X167551065Y-86119819D01*
X168312970Y-86215057D02*
X169074874Y-86215057D01*
X169312970Y-86119819D02*
X169312970Y-85119819D01*
X169312970Y-85119819D02*
X169551065Y-85119819D01*
X169551065Y-85119819D02*
X169693922Y-85167438D01*
X169693922Y-85167438D02*
X169789160Y-85262676D01*
X169789160Y-85262676D02*
X169836779Y-85357914D01*
X169836779Y-85357914D02*
X169884398Y-85548390D01*
X169884398Y-85548390D02*
X169884398Y-85691247D01*
X169884398Y-85691247D02*
X169836779Y-85881723D01*
X169836779Y-85881723D02*
X169789160Y-85976961D01*
X169789160Y-85976961D02*
X169693922Y-86072200D01*
X169693922Y-86072200D02*
X169551065Y-86119819D01*
X169551065Y-86119819D02*
X169312970Y-86119819D01*
X170312970Y-86119819D02*
X170312970Y-85453152D01*
X170312970Y-85643628D02*
X170360589Y-85548390D01*
X170360589Y-85548390D02*
X170408208Y-85500771D01*
X170408208Y-85500771D02*
X170503446Y-85453152D01*
X170503446Y-85453152D02*
X170598684Y-85453152D01*
X170932018Y-86119819D02*
X170932018Y-85453152D01*
X170932018Y-85119819D02*
X170884399Y-85167438D01*
X170884399Y-85167438D02*
X170932018Y-85215057D01*
X170932018Y-85215057D02*
X170979637Y-85167438D01*
X170979637Y-85167438D02*
X170932018Y-85119819D01*
X170932018Y-85119819D02*
X170932018Y-85215057D01*
X171312970Y-85453152D02*
X171551065Y-86119819D01*
X171551065Y-86119819D02*
X171789160Y-85453152D01*
X172551065Y-86072200D02*
X172455827Y-86119819D01*
X172455827Y-86119819D02*
X172265351Y-86119819D01*
X172265351Y-86119819D02*
X172170113Y-86072200D01*
X172170113Y-86072200D02*
X172122494Y-85976961D01*
X172122494Y-85976961D02*
X172122494Y-85596009D01*
X172122494Y-85596009D02*
X172170113Y-85500771D01*
X172170113Y-85500771D02*
X172265351Y-85453152D01*
X172265351Y-85453152D02*
X172455827Y-85453152D01*
X172455827Y-85453152D02*
X172551065Y-85500771D01*
X172551065Y-85500771D02*
X172598684Y-85596009D01*
X172598684Y-85596009D02*
X172598684Y-85691247D01*
X172598684Y-85691247D02*
X172122494Y-85786485D01*
X173027256Y-86119819D02*
X173027256Y-85453152D01*
X173027256Y-85643628D02*
X173074875Y-85548390D01*
X173074875Y-85548390D02*
X173122494Y-85500771D01*
X173122494Y-85500771D02*
X173217732Y-85453152D01*
X173217732Y-85453152D02*
X173312970Y-85453152D01*
X170841541Y-87969819D02*
X171460588Y-87969819D01*
X171460588Y-87969819D02*
X171127255Y-88350771D01*
X171127255Y-88350771D02*
X171270112Y-88350771D01*
X171270112Y-88350771D02*
X171365350Y-88398390D01*
X171365350Y-88398390D02*
X171412969Y-88446009D01*
X171412969Y-88446009D02*
X171460588Y-88541247D01*
X171460588Y-88541247D02*
X171460588Y-88779342D01*
X171460588Y-88779342D02*
X171412969Y-88874580D01*
X171412969Y-88874580D02*
X171365350Y-88922200D01*
X171365350Y-88922200D02*
X171270112Y-88969819D01*
X171270112Y-88969819D02*
X170984398Y-88969819D01*
X170984398Y-88969819D02*
X170889160Y-88922200D01*
X170889160Y-88922200D02*
X170841541Y-88874580D01*
X171746303Y-87969819D02*
X172079636Y-88969819D01*
X172079636Y-88969819D02*
X172412969Y-87969819D01*
X172651065Y-87969819D02*
X173270112Y-87969819D01*
X173270112Y-87969819D02*
X172936779Y-88350771D01*
X172936779Y-88350771D02*
X173079636Y-88350771D01*
X173079636Y-88350771D02*
X173174874Y-88398390D01*
X173174874Y-88398390D02*
X173222493Y-88446009D01*
X173222493Y-88446009D02*
X173270112Y-88541247D01*
X173270112Y-88541247D02*
X173270112Y-88779342D01*
X173270112Y-88779342D02*
X173222493Y-88874580D01*
X173222493Y-88874580D02*
X173174874Y-88922200D01*
X173174874Y-88922200D02*
X173079636Y-88969819D01*
X173079636Y-88969819D02*
X172793922Y-88969819D01*
X172793922Y-88969819D02*
X172698684Y-88922200D01*
X172698684Y-88922200D02*
X172651065Y-88874580D01*
X172062969Y-90419819D02*
X171586779Y-90419819D01*
X171586779Y-90419819D02*
X171539160Y-90896009D01*
X171539160Y-90896009D02*
X171586779Y-90848390D01*
X171586779Y-90848390D02*
X171682017Y-90800771D01*
X171682017Y-90800771D02*
X171920112Y-90800771D01*
X171920112Y-90800771D02*
X172015350Y-90848390D01*
X172015350Y-90848390D02*
X172062969Y-90896009D01*
X172062969Y-90896009D02*
X172110588Y-90991247D01*
X172110588Y-90991247D02*
X172110588Y-91229342D01*
X172110588Y-91229342D02*
X172062969Y-91324580D01*
X172062969Y-91324580D02*
X172015350Y-91372200D01*
X172015350Y-91372200D02*
X171920112Y-91419819D01*
X171920112Y-91419819D02*
X171682017Y-91419819D01*
X171682017Y-91419819D02*
X171586779Y-91372200D01*
X171586779Y-91372200D02*
X171539160Y-91324580D01*
X172396303Y-90419819D02*
X172729636Y-91419819D01*
X172729636Y-91419819D02*
X173062969Y-90419819D01*
X171060588Y-93167438D02*
X170965350Y-93119819D01*
X170965350Y-93119819D02*
X170822493Y-93119819D01*
X170822493Y-93119819D02*
X170679636Y-93167438D01*
X170679636Y-93167438D02*
X170584398Y-93262676D01*
X170584398Y-93262676D02*
X170536779Y-93357914D01*
X170536779Y-93357914D02*
X170489160Y-93548390D01*
X170489160Y-93548390D02*
X170489160Y-93691247D01*
X170489160Y-93691247D02*
X170536779Y-93881723D01*
X170536779Y-93881723D02*
X170584398Y-93976961D01*
X170584398Y-93976961D02*
X170679636Y-94072200D01*
X170679636Y-94072200D02*
X170822493Y-94119819D01*
X170822493Y-94119819D02*
X170917731Y-94119819D01*
X170917731Y-94119819D02*
X171060588Y-94072200D01*
X171060588Y-94072200D02*
X171108207Y-94024580D01*
X171108207Y-94024580D02*
X171108207Y-93691247D01*
X171108207Y-93691247D02*
X170917731Y-93691247D01*
X171536779Y-94119819D02*
X171536779Y-93119819D01*
X171536779Y-93119819D02*
X172108207Y-94119819D01*
X172108207Y-94119819D02*
X172108207Y-93119819D01*
X172584398Y-94119819D02*
X172584398Y-93119819D01*
X172584398Y-93119819D02*
X172822493Y-93119819D01*
X172822493Y-93119819D02*
X172965350Y-93167438D01*
X172965350Y-93167438D02*
X173060588Y-93262676D01*
X173060588Y-93262676D02*
X173108207Y-93357914D01*
X173108207Y-93357914D02*
X173155826Y-93548390D01*
X173155826Y-93548390D02*
X173155826Y-93691247D01*
X173155826Y-93691247D02*
X173108207Y-93881723D01*
X173108207Y-93881723D02*
X173060588Y-93976961D01*
X173060588Y-93976961D02*
X172965350Y-94072200D01*
X172965350Y-94072200D02*
X172822493Y-94119819D01*
X172822493Y-94119819D02*
X172584398Y-94119819D01*
X156969819Y-103320363D02*
X157207914Y-103320363D01*
X157112676Y-103558458D02*
X157207914Y-103320363D01*
X157207914Y-103320363D02*
X157112676Y-103082268D01*
X157398390Y-103463220D02*
X157207914Y-103320363D01*
X157207914Y-103320363D02*
X157398390Y-103177506D01*
X145060588Y-94417438D02*
X144965350Y-94369819D01*
X144965350Y-94369819D02*
X144822493Y-94369819D01*
X144822493Y-94369819D02*
X144679636Y-94417438D01*
X144679636Y-94417438D02*
X144584398Y-94512676D01*
X144584398Y-94512676D02*
X144536779Y-94607914D01*
X144536779Y-94607914D02*
X144489160Y-94798390D01*
X144489160Y-94798390D02*
X144489160Y-94941247D01*
X144489160Y-94941247D02*
X144536779Y-95131723D01*
X144536779Y-95131723D02*
X144584398Y-95226961D01*
X144584398Y-95226961D02*
X144679636Y-95322200D01*
X144679636Y-95322200D02*
X144822493Y-95369819D01*
X144822493Y-95369819D02*
X144917731Y-95369819D01*
X144917731Y-95369819D02*
X145060588Y-95322200D01*
X145060588Y-95322200D02*
X145108207Y-95274580D01*
X145108207Y-95274580D02*
X145108207Y-94941247D01*
X145108207Y-94941247D02*
X144917731Y-94941247D01*
X145536779Y-95369819D02*
X145536779Y-94369819D01*
X145536779Y-94369819D02*
X146108207Y-95369819D01*
X146108207Y-95369819D02*
X146108207Y-94369819D01*
X146584398Y-95369819D02*
X146584398Y-94369819D01*
X146584398Y-94369819D02*
X146822493Y-94369819D01*
X146822493Y-94369819D02*
X146965350Y-94417438D01*
X146965350Y-94417438D02*
X147060588Y-94512676D01*
X147060588Y-94512676D02*
X147108207Y-94607914D01*
X147108207Y-94607914D02*
X147155826Y-94798390D01*
X147155826Y-94798390D02*
X147155826Y-94941247D01*
X147155826Y-94941247D02*
X147108207Y-95131723D01*
X147108207Y-95131723D02*
X147060588Y-95226961D01*
X147060588Y-95226961D02*
X146965350Y-95322200D01*
X146965350Y-95322200D02*
X146822493Y-95369819D01*
X146822493Y-95369819D02*
X146584398Y-95369819D01*
X145012969Y-91719819D02*
X144536779Y-91719819D01*
X144536779Y-91719819D02*
X144489160Y-92196009D01*
X144489160Y-92196009D02*
X144536779Y-92148390D01*
X144536779Y-92148390D02*
X144632017Y-92100771D01*
X144632017Y-92100771D02*
X144870112Y-92100771D01*
X144870112Y-92100771D02*
X144965350Y-92148390D01*
X144965350Y-92148390D02*
X145012969Y-92196009D01*
X145012969Y-92196009D02*
X145060588Y-92291247D01*
X145060588Y-92291247D02*
X145060588Y-92529342D01*
X145060588Y-92529342D02*
X145012969Y-92624580D01*
X145012969Y-92624580D02*
X144965350Y-92672200D01*
X144965350Y-92672200D02*
X144870112Y-92719819D01*
X144870112Y-92719819D02*
X144632017Y-92719819D01*
X144632017Y-92719819D02*
X144536779Y-92672200D01*
X144536779Y-92672200D02*
X144489160Y-92624580D01*
X145346303Y-91719819D02*
X145679636Y-92719819D01*
X145679636Y-92719819D02*
X146012969Y-91719819D01*
X144341541Y-89169819D02*
X144960588Y-89169819D01*
X144960588Y-89169819D02*
X144627255Y-89550771D01*
X144627255Y-89550771D02*
X144770112Y-89550771D01*
X144770112Y-89550771D02*
X144865350Y-89598390D01*
X144865350Y-89598390D02*
X144912969Y-89646009D01*
X144912969Y-89646009D02*
X144960588Y-89741247D01*
X144960588Y-89741247D02*
X144960588Y-89979342D01*
X144960588Y-89979342D02*
X144912969Y-90074580D01*
X144912969Y-90074580D02*
X144865350Y-90122200D01*
X144865350Y-90122200D02*
X144770112Y-90169819D01*
X144770112Y-90169819D02*
X144484398Y-90169819D01*
X144484398Y-90169819D02*
X144389160Y-90122200D01*
X144389160Y-90122200D02*
X144341541Y-90074580D01*
X145246303Y-89169819D02*
X145579636Y-90169819D01*
X145579636Y-90169819D02*
X145912969Y-89169819D01*
X146151065Y-89169819D02*
X146770112Y-89169819D01*
X146770112Y-89169819D02*
X146436779Y-89550771D01*
X146436779Y-89550771D02*
X146579636Y-89550771D01*
X146579636Y-89550771D02*
X146674874Y-89598390D01*
X146674874Y-89598390D02*
X146722493Y-89646009D01*
X146722493Y-89646009D02*
X146770112Y-89741247D01*
X146770112Y-89741247D02*
X146770112Y-89979342D01*
X146770112Y-89979342D02*
X146722493Y-90074580D01*
X146722493Y-90074580D02*
X146674874Y-90122200D01*
X146674874Y-90122200D02*
X146579636Y-90169819D01*
X146579636Y-90169819D02*
X146293922Y-90169819D01*
X146293922Y-90169819D02*
X146198684Y-90122200D01*
X146198684Y-90122200D02*
X146151065Y-90074580D01*
X144486779Y-87569819D02*
X144486779Y-86569819D01*
X144486779Y-87046009D02*
X145058207Y-87046009D01*
X145058207Y-87569819D02*
X145058207Y-86569819D01*
X145534398Y-87046009D02*
X145867731Y-87046009D01*
X146010588Y-87569819D02*
X145534398Y-87569819D01*
X145534398Y-87569819D02*
X145534398Y-86569819D01*
X145534398Y-86569819D02*
X146010588Y-86569819D01*
X146201065Y-87665057D02*
X146962969Y-87665057D01*
X147391541Y-86569819D02*
X147582017Y-86569819D01*
X147582017Y-86569819D02*
X147677255Y-86617438D01*
X147677255Y-86617438D02*
X147772493Y-86712676D01*
X147772493Y-86712676D02*
X147820112Y-86903152D01*
X147820112Y-86903152D02*
X147820112Y-87236485D01*
X147820112Y-87236485D02*
X147772493Y-87426961D01*
X147772493Y-87426961D02*
X147677255Y-87522200D01*
X147677255Y-87522200D02*
X147582017Y-87569819D01*
X147582017Y-87569819D02*
X147391541Y-87569819D01*
X147391541Y-87569819D02*
X147296303Y-87522200D01*
X147296303Y-87522200D02*
X147201065Y-87426961D01*
X147201065Y-87426961D02*
X147153446Y-87236485D01*
X147153446Y-87236485D02*
X147153446Y-86903152D01*
X147153446Y-86903152D02*
X147201065Y-86712676D01*
X147201065Y-86712676D02*
X147296303Y-86617438D01*
X147296303Y-86617438D02*
X147391541Y-86569819D01*
X148248684Y-86569819D02*
X148248684Y-87379342D01*
X148248684Y-87379342D02*
X148296303Y-87474580D01*
X148296303Y-87474580D02*
X148343922Y-87522200D01*
X148343922Y-87522200D02*
X148439160Y-87569819D01*
X148439160Y-87569819D02*
X148629636Y-87569819D01*
X148629636Y-87569819D02*
X148724874Y-87522200D01*
X148724874Y-87522200D02*
X148772493Y-87474580D01*
X148772493Y-87474580D02*
X148820112Y-87379342D01*
X148820112Y-87379342D02*
X148820112Y-86569819D01*
X149153446Y-86569819D02*
X149724874Y-86569819D01*
X149439160Y-87569819D02*
X149439160Y-86569819D01*
X144862969Y-85069819D02*
X144386779Y-85069819D01*
X144386779Y-85069819D02*
X144386779Y-84069819D01*
X145196303Y-84546009D02*
X145529636Y-84546009D01*
X145672493Y-85069819D02*
X145196303Y-85069819D01*
X145196303Y-85069819D02*
X145196303Y-84069819D01*
X145196303Y-84069819D02*
X145672493Y-84069819D01*
X146101065Y-85069819D02*
X146101065Y-84069819D01*
X146101065Y-84069819D02*
X146339160Y-84069819D01*
X146339160Y-84069819D02*
X146482017Y-84117438D01*
X146482017Y-84117438D02*
X146577255Y-84212676D01*
X146577255Y-84212676D02*
X146624874Y-84307914D01*
X146624874Y-84307914D02*
X146672493Y-84498390D01*
X146672493Y-84498390D02*
X146672493Y-84641247D01*
X146672493Y-84641247D02*
X146624874Y-84831723D01*
X146624874Y-84831723D02*
X146577255Y-84926961D01*
X146577255Y-84926961D02*
X146482017Y-85022200D01*
X146482017Y-85022200D02*
X146339160Y-85069819D01*
X146339160Y-85069819D02*
X146101065Y-85069819D01*
X146862970Y-85165057D02*
X147624874Y-85165057D01*
X147862970Y-85069819D02*
X147862970Y-84069819D01*
X147862970Y-84069819D02*
X148101065Y-84069819D01*
X148101065Y-84069819D02*
X148243922Y-84117438D01*
X148243922Y-84117438D02*
X148339160Y-84212676D01*
X148339160Y-84212676D02*
X148386779Y-84307914D01*
X148386779Y-84307914D02*
X148434398Y-84498390D01*
X148434398Y-84498390D02*
X148434398Y-84641247D01*
X148434398Y-84641247D02*
X148386779Y-84831723D01*
X148386779Y-84831723D02*
X148339160Y-84926961D01*
X148339160Y-84926961D02*
X148243922Y-85022200D01*
X148243922Y-85022200D02*
X148101065Y-85069819D01*
X148101065Y-85069819D02*
X147862970Y-85069819D01*
X148862970Y-85069819D02*
X148862970Y-84403152D01*
X148862970Y-84593628D02*
X148910589Y-84498390D01*
X148910589Y-84498390D02*
X148958208Y-84450771D01*
X148958208Y-84450771D02*
X149053446Y-84403152D01*
X149053446Y-84403152D02*
X149148684Y-84403152D01*
X149482018Y-85069819D02*
X149482018Y-84403152D01*
X149482018Y-84069819D02*
X149434399Y-84117438D01*
X149434399Y-84117438D02*
X149482018Y-84165057D01*
X149482018Y-84165057D02*
X149529637Y-84117438D01*
X149529637Y-84117438D02*
X149482018Y-84069819D01*
X149482018Y-84069819D02*
X149482018Y-84165057D01*
X149862970Y-84403152D02*
X150101065Y-85069819D01*
X150101065Y-85069819D02*
X150339160Y-84403152D01*
X151101065Y-85022200D02*
X151005827Y-85069819D01*
X151005827Y-85069819D02*
X150815351Y-85069819D01*
X150815351Y-85069819D02*
X150720113Y-85022200D01*
X150720113Y-85022200D02*
X150672494Y-84926961D01*
X150672494Y-84926961D02*
X150672494Y-84546009D01*
X150672494Y-84546009D02*
X150720113Y-84450771D01*
X150720113Y-84450771D02*
X150815351Y-84403152D01*
X150815351Y-84403152D02*
X151005827Y-84403152D01*
X151005827Y-84403152D02*
X151101065Y-84450771D01*
X151101065Y-84450771D02*
X151148684Y-84546009D01*
X151148684Y-84546009D02*
X151148684Y-84641247D01*
X151148684Y-84641247D02*
X150672494Y-84736485D01*
X151577256Y-85069819D02*
X151577256Y-84403152D01*
X151577256Y-84593628D02*
X151624875Y-84498390D01*
X151624875Y-84498390D02*
X151672494Y-84450771D01*
X151672494Y-84450771D02*
X151767732Y-84403152D01*
X151767732Y-84403152D02*
X151862970Y-84403152D01*
X148212969Y-80019819D02*
X147736779Y-80019819D01*
X147736779Y-80019819D02*
X147736779Y-79019819D01*
X148546303Y-79496009D02*
X148879636Y-79496009D01*
X149022493Y-80019819D02*
X148546303Y-80019819D01*
X148546303Y-80019819D02*
X148546303Y-79019819D01*
X148546303Y-79019819D02*
X149022493Y-79019819D01*
X149451065Y-80019819D02*
X149451065Y-79019819D01*
X149451065Y-79019819D02*
X149689160Y-79019819D01*
X149689160Y-79019819D02*
X149832017Y-79067438D01*
X149832017Y-79067438D02*
X149927255Y-79162676D01*
X149927255Y-79162676D02*
X149974874Y-79257914D01*
X149974874Y-79257914D02*
X150022493Y-79448390D01*
X150022493Y-79448390D02*
X150022493Y-79591247D01*
X150022493Y-79591247D02*
X149974874Y-79781723D01*
X149974874Y-79781723D02*
X149927255Y-79876961D01*
X149927255Y-79876961D02*
X149832017Y-79972200D01*
X149832017Y-79972200D02*
X149689160Y-80019819D01*
X149689160Y-80019819D02*
X149451065Y-80019819D01*
X155236779Y-92894819D02*
X155236779Y-91894819D01*
X155236779Y-92371009D02*
X155808207Y-92371009D01*
X155808207Y-92894819D02*
X155808207Y-91894819D01*
X156712969Y-92894819D02*
X156712969Y-92371009D01*
X156712969Y-92371009D02*
X156665350Y-92275771D01*
X156665350Y-92275771D02*
X156570112Y-92228152D01*
X156570112Y-92228152D02*
X156379636Y-92228152D01*
X156379636Y-92228152D02*
X156284398Y-92275771D01*
X156712969Y-92847200D02*
X156617731Y-92894819D01*
X156617731Y-92894819D02*
X156379636Y-92894819D01*
X156379636Y-92894819D02*
X156284398Y-92847200D01*
X156284398Y-92847200D02*
X156236779Y-92751961D01*
X156236779Y-92751961D02*
X156236779Y-92656723D01*
X156236779Y-92656723D02*
X156284398Y-92561485D01*
X156284398Y-92561485D02*
X156379636Y-92513866D01*
X156379636Y-92513866D02*
X156617731Y-92513866D01*
X156617731Y-92513866D02*
X156712969Y-92466247D01*
X157332017Y-92894819D02*
X157236779Y-92847200D01*
X157236779Y-92847200D02*
X157189160Y-92751961D01*
X157189160Y-92751961D02*
X157189160Y-91894819D01*
X157855827Y-92894819D02*
X157760589Y-92847200D01*
X157760589Y-92847200D02*
X157712970Y-92751961D01*
X157712970Y-92751961D02*
X157712970Y-91894819D01*
X158998685Y-92371009D02*
X159332018Y-92371009D01*
X159474875Y-92894819D02*
X158998685Y-92894819D01*
X158998685Y-92894819D02*
X158998685Y-91894819D01*
X158998685Y-91894819D02*
X159474875Y-91894819D01*
X159760590Y-92228152D02*
X160141542Y-92228152D01*
X159903447Y-92894819D02*
X159903447Y-92037676D01*
X159903447Y-92037676D02*
X159951066Y-91942438D01*
X159951066Y-91942438D02*
X160046304Y-91894819D01*
X160046304Y-91894819D02*
X160141542Y-91894819D01*
X160332019Y-92228152D02*
X160712971Y-92228152D01*
X160474876Y-92894819D02*
X160474876Y-92037676D01*
X160474876Y-92037676D02*
X160522495Y-91942438D01*
X160522495Y-91942438D02*
X160617733Y-91894819D01*
X160617733Y-91894819D02*
X160712971Y-91894819D01*
X161427257Y-92847200D02*
X161332019Y-92894819D01*
X161332019Y-92894819D02*
X161141543Y-92894819D01*
X161141543Y-92894819D02*
X161046305Y-92847200D01*
X161046305Y-92847200D02*
X160998686Y-92751961D01*
X160998686Y-92751961D02*
X160998686Y-92371009D01*
X160998686Y-92371009D02*
X161046305Y-92275771D01*
X161046305Y-92275771D02*
X161141543Y-92228152D01*
X161141543Y-92228152D02*
X161332019Y-92228152D01*
X161332019Y-92228152D02*
X161427257Y-92275771D01*
X161427257Y-92275771D02*
X161474876Y-92371009D01*
X161474876Y-92371009D02*
X161474876Y-92466247D01*
X161474876Y-92466247D02*
X160998686Y-92561485D01*
X162332019Y-92847200D02*
X162236781Y-92894819D01*
X162236781Y-92894819D02*
X162046305Y-92894819D01*
X162046305Y-92894819D02*
X161951067Y-92847200D01*
X161951067Y-92847200D02*
X161903448Y-92799580D01*
X161903448Y-92799580D02*
X161855829Y-92704342D01*
X161855829Y-92704342D02*
X161855829Y-92418628D01*
X161855829Y-92418628D02*
X161903448Y-92323390D01*
X161903448Y-92323390D02*
X161951067Y-92275771D01*
X161951067Y-92275771D02*
X162046305Y-92228152D01*
X162046305Y-92228152D02*
X162236781Y-92228152D01*
X162236781Y-92228152D02*
X162332019Y-92275771D01*
X162617734Y-92228152D02*
X162998686Y-92228152D01*
X162760591Y-91894819D02*
X162760591Y-92751961D01*
X162760591Y-92751961D02*
X162808210Y-92847200D01*
X162808210Y-92847200D02*
X162903448Y-92894819D01*
X162903448Y-92894819D02*
X162998686Y-92894819D01*
D11*
X156850000Y-88050000D02*
X160950000Y-88050000D01*
X160950000Y-91300000D01*
X156850000Y-91300000D01*
X156850000Y-88050000D01*
X0Y-82750000D02*
X0Y-86750000D01*
X0Y-82750000D01*
D10*
X141816666Y-81769819D02*
X141816666Y-82484104D01*
X141816666Y-82484104D02*
X141769047Y-82626961D01*
X141769047Y-82626961D02*
X141673809Y-82722200D01*
X141673809Y-82722200D02*
X141530952Y-82769819D01*
X141530952Y-82769819D02*
X141435714Y-82769819D01*
X142816666Y-82769819D02*
X142245238Y-82769819D01*
X142530952Y-82769819D02*
X142530952Y-81769819D01*
X142530952Y-81769819D02*
X142435714Y-81912676D01*
X142435714Y-81912676D02*
X142340476Y-82007914D01*
X142340476Y-82007914D02*
X142245238Y-82055533D01*
X154388095Y-105229819D02*
X154388095Y-106039342D01*
X154388095Y-106039342D02*
X154435714Y-106134580D01*
X154435714Y-106134580D02*
X154483333Y-106182200D01*
X154483333Y-106182200D02*
X154578571Y-106229819D01*
X154578571Y-106229819D02*
X154769047Y-106229819D01*
X154769047Y-106229819D02*
X154864285Y-106182200D01*
X154864285Y-106182200D02*
X154911904Y-106134580D01*
X154911904Y-106134580D02*
X154959523Y-106039342D01*
X154959523Y-106039342D02*
X154959523Y-105229819D01*
X155959523Y-106229819D02*
X155388095Y-106229819D01*
X155673809Y-106229819D02*
X155673809Y-105229819D01*
X155673809Y-105229819D02*
X155578571Y-105372676D01*
X155578571Y-105372676D02*
X155483333Y-105467914D01*
X155483333Y-105467914D02*
X155388095Y-105515533D01*
X165056233Y-103134580D02*
X165008614Y-103182200D01*
X165008614Y-103182200D02*
X164865757Y-103229819D01*
X164865757Y-103229819D02*
X164770519Y-103229819D01*
X164770519Y-103229819D02*
X164627662Y-103182200D01*
X164627662Y-103182200D02*
X164532424Y-103086961D01*
X164532424Y-103086961D02*
X164484805Y-102991723D01*
X164484805Y-102991723D02*
X164437186Y-102801247D01*
X164437186Y-102801247D02*
X164437186Y-102658390D01*
X164437186Y-102658390D02*
X164484805Y-102467914D01*
X164484805Y-102467914D02*
X164532424Y-102372676D01*
X164532424Y-102372676D02*
X164627662Y-102277438D01*
X164627662Y-102277438D02*
X164770519Y-102229819D01*
X164770519Y-102229819D02*
X164865757Y-102229819D01*
X164865757Y-102229819D02*
X165008614Y-102277438D01*
X165008614Y-102277438D02*
X165056233Y-102325057D01*
X166008614Y-103229819D02*
X165437186Y-103229819D01*
X165722900Y-103229819D02*
X165722900Y-102229819D01*
X165722900Y-102229819D02*
X165627662Y-102372676D01*
X165627662Y-102372676D02*
X165532424Y-102467914D01*
X165532424Y-102467914D02*
X165437186Y-102515533D01*
X153316666Y-72479819D02*
X153316666Y-73194104D01*
X153316666Y-73194104D02*
X153269047Y-73336961D01*
X153269047Y-73336961D02*
X153173809Y-73432200D01*
X153173809Y-73432200D02*
X153030952Y-73479819D01*
X153030952Y-73479819D02*
X152935714Y-73479819D01*
X153697619Y-72479819D02*
X154316666Y-72479819D01*
X154316666Y-72479819D02*
X153983333Y-72860771D01*
X153983333Y-72860771D02*
X154126190Y-72860771D01*
X154126190Y-72860771D02*
X154221428Y-72908390D01*
X154221428Y-72908390D02*
X154269047Y-72956009D01*
X154269047Y-72956009D02*
X154316666Y-73051247D01*
X154316666Y-73051247D02*
X154316666Y-73289342D01*
X154316666Y-73289342D02*
X154269047Y-73384580D01*
X154269047Y-73384580D02*
X154221428Y-73432200D01*
X154221428Y-73432200D02*
X154126190Y-73479819D01*
X154126190Y-73479819D02*
X153840476Y-73479819D01*
X153840476Y-73479819D02*
X153745238Y-73432200D01*
X153745238Y-73432200D02*
X153697619Y-73384580D01*
X175066666Y-82789819D02*
X175066666Y-83504104D01*
X175066666Y-83504104D02*
X175019047Y-83646961D01*
X175019047Y-83646961D02*
X174923809Y-83742200D01*
X174923809Y-83742200D02*
X174780952Y-83789819D01*
X174780952Y-83789819D02*
X174685714Y-83789819D01*
X175495238Y-82885057D02*
X175542857Y-82837438D01*
X175542857Y-82837438D02*
X175638095Y-82789819D01*
X175638095Y-82789819D02*
X175876190Y-82789819D01*
X175876190Y-82789819D02*
X175971428Y-82837438D01*
X175971428Y-82837438D02*
X176019047Y-82885057D01*
X176019047Y-82885057D02*
X176066666Y-82980295D01*
X176066666Y-82980295D02*
X176066666Y-83075533D01*
X176066666Y-83075533D02*
X176019047Y-83218390D01*
X176019047Y-83218390D02*
X175447619Y-83789819D01*
X175447619Y-83789819D02*
X176066666Y-83789819D01*
X145888095Y-74229819D02*
X145888095Y-73229819D01*
X145888095Y-73706009D02*
X146459523Y-73706009D01*
X146459523Y-74229819D02*
X146459523Y-73229819D01*
X147459523Y-74229819D02*
X146888095Y-74229819D01*
X147173809Y-74229819D02*
X147173809Y-73229819D01*
X147173809Y-73229819D02*
X147078571Y-73372676D01*
X147078571Y-73372676D02*
X146983333Y-73467914D01*
X146983333Y-73467914D02*
X146888095Y-73515533D01*
X145888095Y-105979819D02*
X145888095Y-104979819D01*
X145888095Y-105456009D02*
X146459523Y-105456009D01*
X146459523Y-105979819D02*
X146459523Y-104979819D01*
X146840476Y-104979819D02*
X147459523Y-104979819D01*
X147459523Y-104979819D02*
X147126190Y-105360771D01*
X147126190Y-105360771D02*
X147269047Y-105360771D01*
X147269047Y-105360771D02*
X147364285Y-105408390D01*
X147364285Y-105408390D02*
X147411904Y-105456009D01*
X147411904Y-105456009D02*
X147459523Y-105551247D01*
X147459523Y-105551247D02*
X147459523Y-105789342D01*
X147459523Y-105789342D02*
X147411904Y-105884580D01*
X147411904Y-105884580D02*
X147364285Y-105932200D01*
X147364285Y-105932200D02*
X147269047Y-105979819D01*
X147269047Y-105979819D02*
X146983333Y-105979819D01*
X146983333Y-105979819D02*
X146888095Y-105932200D01*
X146888095Y-105932200D02*
X146840476Y-105884580D01*
X170138095Y-105979819D02*
X170138095Y-104979819D01*
X170138095Y-105456009D02*
X170709523Y-105456009D01*
X170709523Y-105979819D02*
X170709523Y-104979819D01*
X171614285Y-105313152D02*
X171614285Y-105979819D01*
X171376190Y-104932200D02*
X171138095Y-105646485D01*
X171138095Y-105646485D02*
X171757142Y-105646485D01*
X170388095Y-74229819D02*
X170388095Y-73229819D01*
X170388095Y-73706009D02*
X170959523Y-73706009D01*
X170959523Y-74229819D02*
X170959523Y-73229819D01*
X171388095Y-73325057D02*
X171435714Y-73277438D01*
X171435714Y-73277438D02*
X171530952Y-73229819D01*
X171530952Y-73229819D02*
X171769047Y-73229819D01*
X171769047Y-73229819D02*
X171864285Y-73277438D01*
X171864285Y-73277438D02*
X171911904Y-73325057D01*
X171911904Y-73325057D02*
X171959523Y-73420295D01*
X171959523Y-73420295D02*
X171959523Y-73515533D01*
X171959523Y-73515533D02*
X171911904Y-73658390D01*
X171911904Y-73658390D02*
X171340476Y-74229819D01*
X171340476Y-74229819D02*
X171959523Y-74229819D01*
D12*
%TO.C,J1*%
X143530000Y-85965000D02*
X143530000Y-96235000D01*
X140770000Y-96235000D02*
X143530000Y-96235000D01*
X140770000Y-85965000D02*
X143530000Y-85965000D01*
X140770000Y-85965000D02*
X140770000Y-96235000D01*
X140770000Y-84695000D02*
X140770000Y-83315000D01*
X140770000Y-83315000D02*
X142150000Y-83315000D01*
%TO.C,U1*%
X160700000Y-103925000D02*
X157100000Y-103925000D01*
X158900000Y-108375000D02*
G75*
G02*
X157061522Y-103936522I0J2600000D01*
G01*
X160738478Y-103936522D02*
G75*
G02*
X158900000Y-108375001I-1838478J-1838478D01*
G01*
D13*
%TO.C,C1*%
X161763100Y-105775000D02*
X162954360Y-105775000D01*
X162398100Y-105140000D02*
X162398100Y-106410000D01*
X162575900Y-104060500D02*
X162575900Y-107489500D01*
X162575900Y-107489500D02*
X167909900Y-107489500D01*
X167909900Y-104060500D02*
X162575900Y-104060500D01*
X167909900Y-107489500D02*
X167909900Y-104060500D01*
D12*
%TO.C,J3*%
X154980000Y-74405000D02*
X154980000Y-73025000D01*
X156360000Y-74405000D02*
X154980000Y-74405000D01*
X157630000Y-74405000D02*
X162820000Y-74405000D01*
X157630000Y-74405000D02*
X157630000Y-71645000D01*
X162820000Y-74405000D02*
X162820000Y-71645000D01*
X157630000Y-71645000D02*
X162820000Y-71645000D01*
%TO.C,J2*%
X174020000Y-84335000D02*
X175400000Y-84335000D01*
X174020000Y-85715000D02*
X174020000Y-84335000D01*
X174020000Y-86985000D02*
X174020000Y-94715000D01*
X174020000Y-86985000D02*
X176780000Y-86985000D01*
X174020000Y-94715000D02*
X176780000Y-94715000D01*
X176780000Y-86985000D02*
X176780000Y-94715000D01*
%TD*%
M02*
