%TF.GenerationSoftware,KiCad,Pcbnew,9.0.7*%
%TF.CreationDate,2026-03-30T21:50:05-05:00*%
%TF.ProjectId,Tile_PCB,54696c65-5f50-4434-922e-6b696361645f,rev?*%
%TF.SameCoordinates,Original*%
%TF.FileFunction,Copper,L1,Top*%
%TF.FilePolarity,Positive*%
%FSLAX46Y46*%
G04 Gerber Fmt 4.6, Leading zero omitted, Abs format (unit mm)*
G04 Created by KiCad (PCBNEW 9.0.7) date 2026-03-30 21:50:05*
%MOMM*%
%LPD*%
G01*
G04 APERTURE LIST*
%TA.AperFunction,ComponentPad*%
%ADD10C,1.700000*%
%TD*%
%TA.AperFunction,ComponentPad*%
%ADD11R,1.700000X1.700000*%
%TD*%
%TA.AperFunction,ComponentPad*%
%ADD12R,1.050000X1.500000*%
%TD*%
%TA.AperFunction,ComponentPad*%
%ADD13O,1.050000X1.500000*%
%TD*%
%TA.AperFunction,ComponentPad*%
%ADD14R,1.371600X1.371600*%
%TD*%
%TA.AperFunction,ComponentPad*%
%ADD15C,1.371600*%
%TD*%
%TA.AperFunction,ComponentPad*%
%ADD16C,4.400000*%
%TD*%
%TA.AperFunction,ViaPad*%
%ADD17C,0.600000*%
%TD*%
%TA.AperFunction,Conductor*%
%ADD18C,0.381000*%
%TD*%
G04 APERTURE END LIST*
D10*
%TO.P,J1,5,Pin_5*%
%TO.N,GND*%
X142150000Y-94855000D03*
%TO.P,J1,4,Pin_4*%
%TO.N,+5V*%
X142150000Y-92315000D03*
%TO.P,J1,3,Pin_3*%
%TO.N,+3.3V*%
X142150000Y-89775000D03*
%TO.P,J1,2,Pin_2*%
%TO.N,/HE_OUT*%
X142150000Y-87235000D03*
D11*
%TO.P,J1,1,Pin_1*%
%TO.N,/LED_Driver*%
X142150000Y-84695000D03*
%TD*%
D12*
%TO.P,U1,1,VCC*%
%TO.N,+3.3V*%
X160170000Y-105775000D03*
D13*
%TO.P,U1,2,GND*%
%TO.N,GND*%
X158900000Y-105775000D03*
%TO.P,U1,3,OUT*%
%TO.N,/HE_OUT*%
X157630000Y-105775000D03*
%TD*%
D14*
%TO.P,C1,1*%
%TO.N,+3.3V*%
X163972900Y-105775000D03*
D15*
%TO.P,C1,2*%
%TO.N,GND*%
X166512900Y-105775000D03*
%TD*%
D11*
%TO.P,J3,1,Pin_1*%
%TO.N,+5V*%
X156360000Y-73025000D03*
D10*
%TO.P,J3,2,Pin_2*%
%TO.N,/LED_Driver*%
X158900000Y-73025000D03*
%TO.P,J3,3,Pin_3*%
%TO.N,GND*%
X161440000Y-73025000D03*
%TD*%
D11*
%TO.P,J2,1,Pin_1*%
%TO.N,/LED_Driver*%
X175400000Y-85715000D03*
D10*
%TO.P,J2,2,Pin_2*%
%TO.N,+3.3V*%
X175400000Y-88255000D03*
%TO.P,J2,3,Pin_3*%
%TO.N,+5V*%
X175400000Y-90795000D03*
%TO.P,J2,4,Pin_4*%
%TO.N,GND*%
X175400000Y-93335000D03*
%TD*%
D16*
%TO.P,H1,1,1*%
%TO.N,GND*%
X142900000Y-73675000D03*
%TD*%
%TO.P,H3,1,1*%
%TO.N,GND*%
X142900000Y-105675000D03*
%TD*%
%TO.P,H4,1,1*%
%TO.N,GND*%
X174900000Y-105675000D03*
%TD*%
%TO.P,H2,1,1*%
%TO.N,GND*%
X174900000Y-73675000D03*
%TD*%
D17*
%TO.N,GND*%
X141850000Y-80100000D03*
X148550000Y-72475000D03*
X149650000Y-75150000D03*
X144400000Y-85700000D03*
X147650000Y-107075000D03*
X141300000Y-101375000D03*
X146100000Y-100175000D03*
X152400000Y-104725000D03*
X167100000Y-103025000D03*
X175000000Y-97175000D03*
X172750000Y-80975000D03*
X166200000Y-75075000D03*
X169250000Y-72975000D03*
X175750000Y-78925000D03*
%TD*%
D18*
%TO.N,+3.3V*%
X142150000Y-89775000D02*
X140400000Y-91525000D01*
X140400000Y-91525000D02*
X140400000Y-97525000D01*
X140400000Y-97525000D02*
X150150000Y-107275000D01*
X150150000Y-107275000D02*
X159650000Y-107275000D01*
X159650000Y-107275000D02*
X160170000Y-106755000D01*
X160170000Y-106755000D02*
X160170000Y-105775000D01*
X160170000Y-105775000D02*
X163972900Y-105775000D01*
%TO.N,+5V*%
X175400000Y-90795000D02*
X176900000Y-89295000D01*
X176900000Y-89295000D02*
X176900000Y-82775000D01*
X176900000Y-82775000D02*
X165650000Y-71525000D01*
X157860000Y-71525000D02*
X156360000Y-73025000D01*
X165650000Y-71525000D02*
X157860000Y-71525000D01*
%TO.N,+3.3V*%
X160170000Y-105775000D02*
X160170000Y-103485000D01*
X160170000Y-103485000D02*
X175400000Y-88255000D01*
%TO.N,+5V*%
X156360000Y-73025000D02*
X156360000Y-78105000D01*
X156360000Y-78105000D02*
X142150000Y-92315000D01*
%TD*%
%TA.AperFunction,Conductor*%
%TO.N,GND*%
G36*
X177692539Y-70845185D02*
G01*
X177738294Y-70897989D01*
X177749500Y-70949500D01*
X177749500Y-108400500D01*
X177729815Y-108467539D01*
X177677011Y-108513294D01*
X177625500Y-108524500D01*
X140174500Y-108524500D01*
X140107461Y-108504815D01*
X140061706Y-108452011D01*
X140050500Y-108400500D01*
X140050500Y-97886398D01*
X140070185Y-97819359D01*
X140122989Y-97773604D01*
X140192147Y-97763660D01*
X140255703Y-97792685D01*
X140262181Y-97798717D01*
X149917142Y-107453678D01*
X149971322Y-107507858D01*
X150037678Y-107546169D01*
X150111689Y-107566000D01*
X150111691Y-107566000D01*
X159688309Y-107566000D01*
X159688311Y-107566000D01*
X159762322Y-107546169D01*
X159828678Y-107507858D01*
X160402858Y-106933678D01*
X160441169Y-106867322D01*
X160461000Y-106793311D01*
X160461000Y-106749499D01*
X160480685Y-106682460D01*
X160533489Y-106636705D01*
X160585000Y-106625499D01*
X160704895Y-106625499D01*
X160704898Y-106625499D01*
X160734213Y-106619669D01*
X160767457Y-106597457D01*
X160789669Y-106564213D01*
X160791409Y-106555467D01*
X160795500Y-106534901D01*
X160795500Y-106190000D01*
X160815185Y-106122961D01*
X160867989Y-106077206D01*
X160919500Y-106066000D01*
X163062601Y-106066000D01*
X163129640Y-106085685D01*
X163175395Y-106138489D01*
X163186601Y-106190000D01*
X163186601Y-106470702D01*
X163192430Y-106500012D01*
X163214642Y-106533257D01*
X163231319Y-106544399D01*
X163247887Y-106555469D01*
X163247890Y-106555469D01*
X163247891Y-106555470D01*
X163257747Y-106557430D01*
X163277201Y-106561300D01*
X164668598Y-106561299D01*
X164697913Y-106555469D01*
X164731157Y-106533257D01*
X164753369Y-106500013D01*
X164759200Y-106470699D01*
X164759199Y-105079302D01*
X164753369Y-105049987D01*
X164753368Y-105049985D01*
X164731157Y-105016742D01*
X164706196Y-105000065D01*
X164697913Y-104994531D01*
X164697911Y-104994530D01*
X164697908Y-104994529D01*
X164668601Y-104988700D01*
X163277205Y-104988700D01*
X163277197Y-104988701D01*
X163247887Y-104994530D01*
X163214642Y-105016742D01*
X163192432Y-105049985D01*
X163192429Y-105049991D01*
X163186600Y-105079298D01*
X163186600Y-105360000D01*
X163166915Y-105427039D01*
X163114111Y-105472794D01*
X163062600Y-105484000D01*
X160919499Y-105484000D01*
X160852460Y-105464315D01*
X160806705Y-105411511D01*
X160795499Y-105360000D01*
X160795499Y-105015105D01*
X160795498Y-105015097D01*
X160789669Y-104985787D01*
X160767457Y-104952542D01*
X160734214Y-104930332D01*
X160734215Y-104930332D01*
X160734213Y-104930331D01*
X160734211Y-104930330D01*
X160734208Y-104930329D01*
X160704901Y-104924500D01*
X160704899Y-104924500D01*
X160585000Y-104924500D01*
X160517961Y-104904815D01*
X160472206Y-104852011D01*
X160461000Y-104800500D01*
X160461000Y-103656897D01*
X160480685Y-103589858D01*
X160497314Y-103569221D01*
X174904933Y-89161601D01*
X174966254Y-89128118D01*
X175035946Y-89133102D01*
X175039998Y-89134696D01*
X175122749Y-89168973D01*
X175306379Y-89205499D01*
X175306383Y-89205500D01*
X175306384Y-89205500D01*
X175493617Y-89205500D01*
X175493618Y-89205499D01*
X175677251Y-89168973D01*
X175850231Y-89097322D01*
X176005908Y-88993302D01*
X176138302Y-88860908D01*
X176242322Y-88705231D01*
X176313973Y-88532251D01*
X176350500Y-88348616D01*
X176350500Y-88161384D01*
X176313973Y-87977749D01*
X176242322Y-87804769D01*
X176242321Y-87804768D01*
X176242318Y-87804762D01*
X176138302Y-87649092D01*
X176138299Y-87649088D01*
X176005911Y-87516700D01*
X176005907Y-87516697D01*
X175850237Y-87412681D01*
X175850228Y-87412676D01*
X175677251Y-87341027D01*
X175677243Y-87341025D01*
X175493620Y-87304500D01*
X175493616Y-87304500D01*
X175306384Y-87304500D01*
X175306379Y-87304500D01*
X175122756Y-87341025D01*
X175122748Y-87341027D01*
X174949771Y-87412676D01*
X174949762Y-87412681D01*
X174794092Y-87516697D01*
X174794088Y-87516700D01*
X174661700Y-87649088D01*
X174661697Y-87649092D01*
X174557681Y-87804762D01*
X174557676Y-87804771D01*
X174486027Y-87977748D01*
X174486025Y-87977756D01*
X174449500Y-88161379D01*
X174449500Y-88348620D01*
X174486025Y-88532243D01*
X174486027Y-88532251D01*
X174520275Y-88614933D01*
X174527744Y-88684403D01*
X174496469Y-88746882D01*
X174493395Y-88750067D01*
X159991322Y-103252142D01*
X159937144Y-103306319D01*
X159937142Y-103306322D01*
X159898831Y-103372677D01*
X159879000Y-103446689D01*
X159879000Y-104800500D01*
X159859315Y-104867539D01*
X159806511Y-104913294D01*
X159755001Y-104924500D01*
X159635105Y-104924500D01*
X159635097Y-104924501D01*
X159605787Y-104930330D01*
X159572542Y-104952542D01*
X159550332Y-104985785D01*
X159550329Y-104985791D01*
X159544500Y-105015098D01*
X159544500Y-106534894D01*
X159544501Y-106534902D01*
X159550330Y-106564212D01*
X159572542Y-106597457D01*
X159578540Y-106601464D01*
X159605787Y-106619669D01*
X159618480Y-106622194D01*
X159627485Y-106626904D01*
X159637623Y-106627629D01*
X159657922Y-106642825D01*
X159680390Y-106654577D01*
X159685419Y-106663408D01*
X159693557Y-106669500D01*
X159702418Y-106693259D01*
X159714966Y-106715292D01*
X159714422Y-106725441D01*
X159717974Y-106734964D01*
X159712584Y-106759737D01*
X159711228Y-106785061D01*
X159704886Y-106795125D01*
X159703122Y-106803237D01*
X159681972Y-106831492D01*
X159565781Y-106947682D01*
X159504461Y-106981166D01*
X159478102Y-106984000D01*
X150321898Y-106984000D01*
X150254859Y-106964315D01*
X150234217Y-106947681D01*
X148774925Y-105488389D01*
X157004500Y-105488389D01*
X157004500Y-106061610D01*
X157028535Y-106182444D01*
X157028538Y-106182454D01*
X157075687Y-106296283D01*
X157075692Y-106296292D01*
X157144141Y-106398732D01*
X157144144Y-106398736D01*
X157231263Y-106485855D01*
X157231267Y-106485858D01*
X157333707Y-106554307D01*
X157333716Y-106554312D01*
X157336512Y-106555470D01*
X157447548Y-106601463D01*
X157539069Y-106619667D01*
X157568389Y-106625499D01*
X157568393Y-106625500D01*
X157568394Y-106625500D01*
X157691607Y-106625500D01*
X157691608Y-106625499D01*
X157812452Y-106601463D01*
X157926286Y-106554311D01*
X158028733Y-106485858D01*
X158115858Y-106398733D01*
X158184311Y-106296286D01*
X158231463Y-106182452D01*
X158255500Y-106061606D01*
X158255500Y-105488394D01*
X158231463Y-105367548D01*
X158184311Y-105253714D01*
X158184310Y-105253713D01*
X158184307Y-105253707D01*
X158115858Y-105151267D01*
X158115855Y-105151263D01*
X158028736Y-105064144D01*
X158028732Y-105064141D01*
X157926292Y-104995692D01*
X157926283Y-104995687D01*
X157812454Y-104948538D01*
X157812455Y-104948538D01*
X157812452Y-104948537D01*
X157812448Y-104948536D01*
X157812444Y-104948535D01*
X157691610Y-104924500D01*
X157691606Y-104924500D01*
X157568394Y-104924500D01*
X157568389Y-104924500D01*
X157447555Y-104948535D01*
X157447545Y-104948538D01*
X157333716Y-104995687D01*
X157333707Y-104995692D01*
X157231267Y-105064141D01*
X157231263Y-105064144D01*
X157144144Y-105151263D01*
X157144141Y-105151267D01*
X157075692Y-105253707D01*
X157075687Y-105253716D01*
X157028538Y-105367545D01*
X157028535Y-105367555D01*
X157004500Y-105488389D01*
X148774925Y-105488389D01*
X140727319Y-97440783D01*
X140693834Y-97379460D01*
X140691000Y-97353102D01*
X140691000Y-92221379D01*
X141199500Y-92221379D01*
X141199500Y-92408620D01*
X141236025Y-92592243D01*
X141236027Y-92592251D01*
X141307676Y-92765228D01*
X141307681Y-92765237D01*
X141411697Y-92920907D01*
X141411700Y-92920911D01*
X141544088Y-93053299D01*
X141544092Y-93053302D01*
X141699762Y-93157318D01*
X141699768Y-93157321D01*
X141699769Y-93157322D01*
X141872749Y-93228973D01*
X142056379Y-93265499D01*
X142056383Y-93265500D01*
X142056384Y-93265500D01*
X142243617Y-93265500D01*
X142243618Y-93265499D01*
X142427251Y-93228973D01*
X142600231Y-93157322D01*
X142755908Y-93053302D01*
X142888302Y-92920908D01*
X142992322Y-92765231D01*
X143063973Y-92592251D01*
X143100500Y-92408616D01*
X143100500Y-92221384D01*
X143063973Y-92037749D01*
X143029722Y-91955061D01*
X143022254Y-91885597D01*
X143053528Y-91823117D01*
X143056575Y-91819959D01*
X150021437Y-84855098D01*
X174449500Y-84855098D01*
X174449500Y-86574894D01*
X174449501Y-86574902D01*
X174455330Y-86604212D01*
X174477542Y-86637457D01*
X174494219Y-86648599D01*
X174510787Y-86659669D01*
X174510790Y-86659669D01*
X174510791Y-86659670D01*
X174520647Y-86661630D01*
X174540101Y-86665500D01*
X176259898Y-86665499D01*
X176289213Y-86659669D01*
X176322457Y-86637457D01*
X176344669Y-86604213D01*
X176350500Y-86574899D01*
X176350499Y-84855102D01*
X176344669Y-84825787D01*
X176344668Y-84825785D01*
X176322457Y-84792542D01*
X176289214Y-84770332D01*
X176289215Y-84770332D01*
X176289213Y-84770331D01*
X176289211Y-84770330D01*
X176289208Y-84770329D01*
X176259901Y-84764500D01*
X174540105Y-84764500D01*
X174540097Y-84764501D01*
X174510787Y-84770330D01*
X174477542Y-84792542D01*
X174455332Y-84825785D01*
X174455329Y-84825791D01*
X174449500Y-84855098D01*
X150021437Y-84855098D01*
X156592858Y-78283678D01*
X156631169Y-78217322D01*
X156651000Y-78143311D01*
X156651000Y-78066689D01*
X156651000Y-74099499D01*
X156670685Y-74032460D01*
X156723489Y-73986705D01*
X156775000Y-73975499D01*
X157219895Y-73975499D01*
X157219898Y-73975499D01*
X157249213Y-73969669D01*
X157282457Y-73947457D01*
X157304669Y-73914213D01*
X157310500Y-73884899D01*
X157310499Y-72931379D01*
X157949500Y-72931379D01*
X157949500Y-73118620D01*
X157986025Y-73302243D01*
X157986027Y-73302251D01*
X158057676Y-73475228D01*
X158057681Y-73475237D01*
X158161697Y-73630907D01*
X158161700Y-73630911D01*
X158294088Y-73763299D01*
X158294092Y-73763302D01*
X158449762Y-73867318D01*
X158449768Y-73867321D01*
X158449769Y-73867322D01*
X158622749Y-73938973D01*
X158806374Y-73975498D01*
X158806379Y-73975499D01*
X158806383Y-73975500D01*
X158806384Y-73975500D01*
X158993617Y-73975500D01*
X158993618Y-73975499D01*
X159177251Y-73938973D01*
X159350231Y-73867322D01*
X159505908Y-73763302D01*
X159638302Y-73630908D01*
X159742322Y-73475231D01*
X159813973Y-73302251D01*
X159850500Y-73118616D01*
X159850500Y-72931384D01*
X159813973Y-72747749D01*
X159742322Y-72574769D01*
X159742321Y-72574768D01*
X159742318Y-72574762D01*
X159638302Y-72419092D01*
X159638299Y-72419088D01*
X159505911Y-72286700D01*
X159505907Y-72286697D01*
X159350237Y-72182681D01*
X159350228Y-72182676D01*
X159177251Y-72111027D01*
X159177243Y-72111025D01*
X158993620Y-72074500D01*
X158993616Y-72074500D01*
X158806384Y-72074500D01*
X158806379Y-72074500D01*
X158622756Y-72111025D01*
X158622748Y-72111027D01*
X158449771Y-72182676D01*
X158449762Y-72182681D01*
X158294092Y-72286697D01*
X158294088Y-72286700D01*
X158161700Y-72419088D01*
X158161697Y-72419092D01*
X158057681Y-72574762D01*
X158057676Y-72574771D01*
X157986027Y-72747748D01*
X157986025Y-72747756D01*
X157949500Y-72931379D01*
X157310499Y-72931379D01*
X157310499Y-72537397D01*
X157330184Y-72470359D01*
X157346818Y-72449717D01*
X157944217Y-71852319D01*
X158005540Y-71818834D01*
X158031898Y-71816000D01*
X165478102Y-71816000D01*
X165545141Y-71835685D01*
X165565783Y-71852319D01*
X176572681Y-82859217D01*
X176606166Y-82920540D01*
X176609000Y-82946898D01*
X176609000Y-89123101D01*
X176589315Y-89190140D01*
X176572681Y-89210782D01*
X175895067Y-89888395D01*
X175833744Y-89921880D01*
X175764052Y-89916896D01*
X175759933Y-89915275D01*
X175677251Y-89881027D01*
X175677243Y-89881025D01*
X175493620Y-89844500D01*
X175493616Y-89844500D01*
X175306384Y-89844500D01*
X175306379Y-89844500D01*
X175122756Y-89881025D01*
X175122748Y-89881027D01*
X174949771Y-89952676D01*
X174949762Y-89952681D01*
X174794092Y-90056697D01*
X174794088Y-90056700D01*
X174661700Y-90189088D01*
X174661697Y-90189092D01*
X174557681Y-90344762D01*
X174557676Y-90344771D01*
X174486027Y-90517748D01*
X174486025Y-90517756D01*
X174449500Y-90701379D01*
X174449500Y-90888620D01*
X174486025Y-91072243D01*
X174486027Y-91072251D01*
X174557676Y-91245228D01*
X174557681Y-91245237D01*
X174661697Y-91400907D01*
X174661700Y-91400911D01*
X174794088Y-91533299D01*
X174794092Y-91533302D01*
X174949762Y-91637318D01*
X174949768Y-91637321D01*
X174949769Y-91637322D01*
X175122749Y-91708973D01*
X175306379Y-91745499D01*
X175306383Y-91745500D01*
X175306384Y-91745500D01*
X175493617Y-91745500D01*
X175493618Y-91745499D01*
X175677251Y-91708973D01*
X175850231Y-91637322D01*
X176005908Y-91533302D01*
X176138302Y-91400908D01*
X176242322Y-91245231D01*
X176313973Y-91072251D01*
X176350500Y-90888616D01*
X176350500Y-90701384D01*
X176313973Y-90517749D01*
X176279722Y-90435061D01*
X176272254Y-90365597D01*
X176303528Y-90303117D01*
X176306573Y-90299961D01*
X177132858Y-89473678D01*
X177171169Y-89407322D01*
X177191000Y-89333311D01*
X177191000Y-89256689D01*
X177191000Y-82736689D01*
X177171169Y-82662678D01*
X177132858Y-82596322D01*
X177078678Y-82542142D01*
X165828678Y-71292142D01*
X165762322Y-71253831D01*
X165688311Y-71234000D01*
X157898311Y-71234000D01*
X157821689Y-71234000D01*
X157747677Y-71253831D01*
X157681322Y-71292142D01*
X157681319Y-71292144D01*
X156935282Y-72038181D01*
X156873959Y-72071666D01*
X156847601Y-72074500D01*
X155500105Y-72074500D01*
X155500097Y-72074501D01*
X155470787Y-72080330D01*
X155437542Y-72102542D01*
X155415332Y-72135785D01*
X155415329Y-72135791D01*
X155409500Y-72165098D01*
X155409500Y-73884894D01*
X155409501Y-73884902D01*
X155415330Y-73914212D01*
X155437542Y-73947457D01*
X155454219Y-73958599D01*
X155470787Y-73969669D01*
X155470790Y-73969669D01*
X155470791Y-73969670D01*
X155480647Y-73971630D01*
X155500101Y-73975500D01*
X155945000Y-73975499D01*
X156012039Y-73995183D01*
X156057794Y-74047987D01*
X156069000Y-74099499D01*
X156069000Y-77933101D01*
X156049315Y-78000140D01*
X156032681Y-78020782D01*
X142645067Y-91408395D01*
X142583744Y-91441880D01*
X142514052Y-91436896D01*
X142509933Y-91435275D01*
X142427251Y-91401027D01*
X142427243Y-91401025D01*
X142243620Y-91364500D01*
X142243616Y-91364500D01*
X142056384Y-91364500D01*
X142056379Y-91364500D01*
X141872756Y-91401025D01*
X141872748Y-91401027D01*
X141699771Y-91472676D01*
X141699762Y-91472681D01*
X141544092Y-91576697D01*
X141544088Y-91576700D01*
X141411700Y-91709088D01*
X141411697Y-91709092D01*
X141307681Y-91864762D01*
X141307676Y-91864771D01*
X141236027Y-92037748D01*
X141236025Y-92037756D01*
X141199500Y-92221379D01*
X140691000Y-92221379D01*
X140691000Y-91696897D01*
X140710685Y-91629858D01*
X140727314Y-91609220D01*
X141654933Y-90681601D01*
X141716254Y-90648118D01*
X141785945Y-90653102D01*
X141789999Y-90654696D01*
X141872749Y-90688973D01*
X142056379Y-90725499D01*
X142056383Y-90725500D01*
X142056384Y-90725500D01*
X142243617Y-90725500D01*
X142243618Y-90725499D01*
X142427251Y-90688973D01*
X142600231Y-90617322D01*
X142755908Y-90513302D01*
X142888302Y-90380908D01*
X142992322Y-90225231D01*
X143063973Y-90052251D01*
X143100500Y-89868616D01*
X143100500Y-89681384D01*
X143063973Y-89497749D01*
X142995860Y-89333310D01*
X142992323Y-89324771D01*
X142992318Y-89324762D01*
X142888302Y-89169092D01*
X142888299Y-89169088D01*
X142755911Y-89036700D01*
X142755907Y-89036697D01*
X142600237Y-88932681D01*
X142600228Y-88932676D01*
X142427251Y-88861027D01*
X142427243Y-88861025D01*
X142243620Y-88824500D01*
X142243616Y-88824500D01*
X142056384Y-88824500D01*
X142056379Y-88824500D01*
X141872756Y-88861025D01*
X141872748Y-88861027D01*
X141699771Y-88932676D01*
X141699762Y-88932681D01*
X141544092Y-89036697D01*
X141544088Y-89036700D01*
X141411700Y-89169088D01*
X141411697Y-89169092D01*
X141307681Y-89324762D01*
X141307676Y-89324771D01*
X141236027Y-89497748D01*
X141236025Y-89497756D01*
X141199500Y-89681379D01*
X141199500Y-89868620D01*
X141236025Y-90052243D01*
X141236027Y-90052251D01*
X141270275Y-90134933D01*
X141277744Y-90204403D01*
X141246469Y-90266882D01*
X141243395Y-90270067D01*
X140262181Y-91251282D01*
X140200858Y-91284767D01*
X140131167Y-91279783D01*
X140075233Y-91237911D01*
X140050816Y-91172447D01*
X140050500Y-91163601D01*
X140050500Y-87141379D01*
X141199500Y-87141379D01*
X141199500Y-87328620D01*
X141236025Y-87512243D01*
X141236027Y-87512251D01*
X141307676Y-87685228D01*
X141307681Y-87685237D01*
X141411697Y-87840907D01*
X141411700Y-87840911D01*
X141544088Y-87973299D01*
X141544092Y-87973302D01*
X141699762Y-88077318D01*
X141699768Y-88077321D01*
X141699769Y-88077322D01*
X141872749Y-88148973D01*
X142056379Y-88185499D01*
X142056383Y-88185500D01*
X142056384Y-88185500D01*
X142243617Y-88185500D01*
X142243618Y-88185499D01*
X142427251Y-88148973D01*
X142600231Y-88077322D01*
X142755908Y-87973302D01*
X142888302Y-87840908D01*
X142992322Y-87685231D01*
X143063973Y-87512251D01*
X143100500Y-87328616D01*
X143100500Y-87141384D01*
X143063973Y-86957749D01*
X142992322Y-86784769D01*
X142992321Y-86784768D01*
X142992318Y-86784762D01*
X142888302Y-86629092D01*
X142888299Y-86629088D01*
X142755911Y-86496700D01*
X142755907Y-86496697D01*
X142600237Y-86392681D01*
X142600228Y-86392676D01*
X142427251Y-86321027D01*
X142427243Y-86321025D01*
X142243620Y-86284500D01*
X142243616Y-86284500D01*
X142056384Y-86284500D01*
X142056379Y-86284500D01*
X141872756Y-86321025D01*
X141872748Y-86321027D01*
X141699771Y-86392676D01*
X141699762Y-86392681D01*
X141544092Y-86496697D01*
X141544088Y-86496700D01*
X141411700Y-86629088D01*
X141411697Y-86629092D01*
X141307681Y-86784762D01*
X141307676Y-86784771D01*
X141236027Y-86957748D01*
X141236025Y-86957756D01*
X141199500Y-87141379D01*
X140050500Y-87141379D01*
X140050500Y-83835098D01*
X141199500Y-83835098D01*
X141199500Y-85554894D01*
X141199501Y-85554902D01*
X141205330Y-85584212D01*
X141227542Y-85617457D01*
X141244219Y-85628599D01*
X141260787Y-85639669D01*
X141260790Y-85639669D01*
X141260791Y-85639670D01*
X141270647Y-85641630D01*
X141290101Y-85645500D01*
X143009898Y-85645499D01*
X143039213Y-85639669D01*
X143072457Y-85617457D01*
X143094669Y-85584213D01*
X143100500Y-85554899D01*
X143100499Y-83835102D01*
X143094669Y-83805787D01*
X143094668Y-83805785D01*
X143072457Y-83772542D01*
X143039214Y-83750332D01*
X143039215Y-83750332D01*
X143039213Y-83750331D01*
X143039211Y-83750330D01*
X143039208Y-83750329D01*
X143009901Y-83744500D01*
X141290105Y-83744500D01*
X141290097Y-83744501D01*
X141260787Y-83750330D01*
X141227542Y-83772542D01*
X141205332Y-83805785D01*
X141205329Y-83805791D01*
X141199500Y-83835098D01*
X140050500Y-83835098D01*
X140050500Y-79413957D01*
X143249500Y-79413957D01*
X143249500Y-79686042D01*
X143274599Y-79876679D01*
X143285013Y-79955779D01*
X143320221Y-80087179D01*
X143355430Y-80218581D01*
X143459544Y-80469933D01*
X143459547Y-80469940D01*
X143595582Y-80705560D01*
X143595585Y-80705564D01*
X143595589Y-80705570D01*
X143761209Y-80921408D01*
X143761217Y-80921417D01*
X143953583Y-81113783D01*
X143953591Y-81113790D01*
X143953592Y-81113791D01*
X144028175Y-81171020D01*
X144169429Y-81279410D01*
X144169432Y-81279412D01*
X144169440Y-81279418D01*
X144405060Y-81415453D01*
X144572634Y-81484864D01*
X144656418Y-81519569D01*
X144656419Y-81519569D01*
X144656421Y-81519570D01*
X144919221Y-81589987D01*
X145188965Y-81625500D01*
X145188972Y-81625500D01*
X145461028Y-81625500D01*
X145461035Y-81625500D01*
X145730779Y-81589987D01*
X145993579Y-81519570D01*
X146244940Y-81415453D01*
X146480560Y-81279418D01*
X146696408Y-81113791D01*
X146696412Y-81113786D01*
X146696417Y-81113783D01*
X146888783Y-80921417D01*
X146888786Y-80921412D01*
X146888791Y-80921408D01*
X147054418Y-80705560D01*
X147190453Y-80469940D01*
X147294570Y-80218579D01*
X147364987Y-79955779D01*
X147400500Y-79686035D01*
X147400500Y-79413965D01*
X147364987Y-79144221D01*
X147294570Y-78881421D01*
X147190453Y-78630060D01*
X147054418Y-78394440D01*
X146888791Y-78178592D01*
X146888790Y-78178591D01*
X146888783Y-78178583D01*
X146696417Y-77986217D01*
X146696408Y-77986209D01*
X146480570Y-77820589D01*
X146480564Y-77820585D01*
X146480560Y-77820582D01*
X146244940Y-77684547D01*
X146244933Y-77684544D01*
X145993581Y-77580430D01*
X145862179Y-77545221D01*
X145730779Y-77510013D01*
X145670835Y-77502121D01*
X145461042Y-77474500D01*
X145461035Y-77474500D01*
X145188965Y-77474500D01*
X145188957Y-77474500D01*
X144949192Y-77506067D01*
X144919221Y-77510013D01*
X144853521Y-77527617D01*
X144656418Y-77580430D01*
X144405066Y-77684544D01*
X144405057Y-77684548D01*
X144169446Y-77820578D01*
X144169429Y-77820589D01*
X143953591Y-77986209D01*
X143761209Y-78178591D01*
X143595589Y-78394429D01*
X143595578Y-78394446D01*
X143459548Y-78630057D01*
X143459544Y-78630066D01*
X143355430Y-78881418D01*
X143285013Y-79144222D01*
X143249500Y-79413957D01*
X140050500Y-79413957D01*
X140050500Y-70949500D01*
X140070185Y-70882461D01*
X140122989Y-70836706D01*
X140174500Y-70825500D01*
X177625500Y-70825500D01*
X177692539Y-70845185D01*
G37*
%TD.AperFunction*%
%TD*%
M02*
